# Blender 4.5.4 LTS
# www.blender.org
mtllib road_straight.mtl
o road_straight_Cube.952
v -1.000000 0.000000 1.000000
v -1.000000 0.070000 1.000000
v -1.000000 -0.000000 -1.000000
v -1.000000 0.070000 -1.000000
v 1.000000 0.000000 1.000000
v 1.000000 0.070000 1.000000
v 1.000000 -0.000000 -1.000000
v 1.000000 0.070000 -1.000000
v 0.900000 -0.000000 -1.000000
v -0.900000 -0.000000 -1.000000
v -0.900000 0.070000 -1.000000
v 0.900000 0.070000 -1.000000
v -0.900000 0.000000 1.000000
v 0.900000 0.000000 1.000000
v 0.900000 0.070000 1.000000
v -0.900000 0.070000 1.000000
v -1.000000 0.100000 1.000000
v -1.000000 0.100000 -1.000000
v 1.000000 0.100000 -1.000000
v 1.000000 0.100000 1.000000
v -0.930000 0.100000 -1.000000
v 0.930000 0.100000 -1.000000
v 0.930000 0.100000 1.000000
v -0.930000 0.100000 1.000000
v -0.020000 0.073000 -0.900000
v 0.020000 0.073000 -0.900000
v 0.020000 0.073000 -0.700000
v -0.020000 0.073000 -0.700000
v -0.620000 0.073000 -1.000000
v -0.580000 0.073000 -1.000000
v -0.580000 0.073000 1.000000
v -0.620000 0.073000 1.000000
v 0.580000 0.073000 -1.000000
v 0.620000 0.073000 -1.000000
v 0.620000 0.073000 1.000000
v 0.580000 0.073000 1.000000
v -0.020000 0.073000 -0.500000
v 0.020000 0.073000 -0.500000
v 0.020000 0.073000 -0.300000
v -0.020000 0.073000 -0.300000
v -0.020000 0.073000 -0.100000
v 0.020000 0.073000 -0.100000
v 0.020000 0.073000 0.100000
v -0.020000 0.073000 0.100000
v -0.020000 0.073000 0.300000
v 0.020000 0.073000 0.300000
v 0.020000 0.073000 0.500000
v -0.020000 0.073000 0.500000
v -0.020000 0.073000 0.700000
v 0.020000 0.073000 0.700000
v 0.020000 0.073000 0.900000
v -0.020000 0.073000 0.900000
vn -1.0000 -0.0000 -0.0000
vn -0.0000 1.0000 -0.0000
vn 1.0000 -0.0000 -0.0000
vn -0.0000 -0.0000 -1.0000
vn -0.0000 -0.0000 1.0000
vn 0.7071 0.7071 -0.0000
vn -0.0000 -1.0000 -0.0000
vn -0.7071 0.7071 -0.0000
vt 0.308694 0.825770
vt 0.308694 0.811717
vt 0.341823 0.863281
vt 0.345504 0.863281
vt 0.345504 0.825770
vt 0.345504 0.811717
vt 0.312375 0.825770
vt 0.341823 0.825770
vt 0.341823 0.832031
vt 0.345504 0.832031
vt 0.312375 0.832031
vt 0.341823 0.780467
vt 0.312375 0.780467
vt 0.312375 0.791153
vt 0.341823 0.791153
vt 0.312375 0.811717
vt 0.341823 0.811717
vt 0.308694 0.832031
vt 0.308694 0.863281
vt 0.312375 0.863281
vt 0.216823 0.916153
vt 0.187375 0.916153
vt 0.466823 0.666153
vt 0.437375 0.666153
s 1
usemtl citybits_texture
f 2/1/1 3/2/1 1/2/1
f 22/3/2 20/4/2 19/4/2
f 8/5/3 5/6/3 7/6/3
f 11/7/4 3/2/4 4/1/4
f 15/8/5 5/6/5 6/5/5
f 8/5/4 22/9/4 19/10/4
f 11/7/6 24/11/6 16/7/6
f 4/1/4 21/11/4 11/7/4
f 14/12/7 10/13/7 9/12/7
f 16/14/5 14/12/5 15/15/5
f 10/16/7 1/2/7 3/2/7
f 7/6/7 14/17/7 9/17/7
f 12/15/4 10/13/4 11/14/4
f 16/7/5 1/2/5 13/16/5
f 12/8/4 7/6/4 9/17/4
f 2/1/5 24/11/5 17/18/5
f 18/19/2 24/20/2 21/20/2
f 8/5/3 20/10/3 6/5/3
f 15/8/8 22/9/8 12/8/8
f 2/1/1 18/18/1 4/1/1
f 6/5/5 23/9/5 15/8/5
f 12/15/2 16/14/2 15/15/2
f 26/21/2 28/22/2 27/21/2
f 30/23/2 32/24/2 31/23/2
f 34/23/2 36/24/2 35/23/2
f 38/21/2 40/22/2 39/21/2
f 42/21/2 44/22/2 43/21/2
f 46/21/2 48/22/2 47/21/2
f 50/21/2 52/22/2 51/21/2
f 2/1/1 4/1/1 3/2/1
f 22/3/2 23/3/2 20/4/2
f 8/5/3 6/5/3 5/6/3
f 11/7/4 10/16/4 3/2/4
f 15/8/5 14/17/5 5/6/5
f 8/5/4 12/8/4 22/9/4
f 11/7/6 21/11/6 24/11/6
f 4/1/4 18/18/4 21/11/4
f 14/12/7 13/13/7 10/13/7
f 16/14/5 13/13/5 14/12/5
f 10/16/7 13/16/7 1/2/7
f 7/6/7 5/6/7 14/17/7
f 12/15/4 9/12/4 10/13/4
f 16/7/5 2/1/5 1/2/5
f 12/8/4 8/5/4 7/6/4
f 2/1/5 16/7/5 24/11/5
f 18/19/2 17/19/2 24/20/2
f 8/5/3 19/10/3 20/10/3
f 15/8/8 23/9/8 22/9/8
f 2/1/1 17/18/1 18/18/1
f 6/5/5 20/10/5 23/9/5
f 12/15/2 11/14/2 16/14/2
f 26/21/2 25/22/2 28/22/2
f 30/23/2 29/24/2 32/24/2
f 34/23/2 33/24/2 36/24/2
f 38/21/2 37/22/2 40/22/2
f 42/21/2 41/22/2 44/22/2
f 46/21/2 45/22/2 48/22/2
f 50/21/2 49/22/2 52/22/2
