# Blender 4.5.4 LTS
# www.blender.org
mtllib ambulance.mtl
o Car8
v -1.309855 3.048034 -3.571357
v -1.309856 1.926617 2.150337
v -1.309856 3.048019 1.824992
v -1.187148 3.195727 1.778863
v 0.000000 1.926611 2.150337
v 0.000000 3.195729 1.778848
v -1.309855 0.482515 -3.571357
v 0.000000 3.195729 -3.571357
v 0.000000 1.500345 2.960600
v -1.309856 0.896921 -2.462884
v -1.309856 1.500350 2.960601
v -1.309857 1.122567 2.195899
v -1.187147 3.195728 -3.571357
v 0.000000 0.482512 -3.571362
v -0.667850 1.122567 2.195899
v -0.667850 0.920245 2.434727
v -1.309857 0.920245 2.434727
v -1.309857 0.574254 2.595972
v -1.309857 0.574254 2.960601
v -1.309856 0.896911 -1.457872
v -0.667849 0.896922 -2.462884
v -0.667850 0.482509 1.286404
v -0.667850 0.903531 1.519617
v -1.309856 0.903531 1.519617
v -0.667849 0.896911 -1.457872
v -1.309855 0.482509 -2.578799
v -0.667849 0.482509 -2.578799
v 0.000000 0.574247 2.960600
v -1.309856 0.482509 -1.346276
v -1.309857 0.482509 1.286404
v -1.309856 1.112957 1.744848
v -1.309856 1.153942 1.984106
v -0.667849 1.112958 1.744848
v -0.667849 1.153943 1.984106
v -0.667849 0.482508 -1.346276
v -0.667850 0.574254 2.595972
v -1.583251 2.436496 1.745782
v -1.583250 2.103992 1.745781
v -1.583251 2.103992 1.841485
v -1.583252 2.436496 1.841484
v -1.373082 2.436496 1.745782
v -1.373082 2.436496 1.841484
v -1.373082 2.103993 1.841485
v -1.373081 2.103993 1.745781
v -1.445226 2.773315 1.796345
v -1.507837 2.836599 1.778271
v -1.306217 2.836416 1.778272
v -1.306217 2.773805 1.796346
v -1.507837 2.836599 1.814420
v -1.306217 2.836416 1.814420
v -1.445221 2.436160 1.796345
v -1.507832 2.436159 1.778271
v -1.507832 2.436159 1.814420
v -1.445225 1.971373 1.796345
v -1.306216 1.919835 1.796346
v -1.306217 1.857224 1.778272
v -1.507836 1.932598 1.778271
v -1.306216 1.857224 1.814420
v -1.507836 1.932598 1.814419
v -1.507831 2.106410 1.778271
v -1.445220 2.106410 1.796345
v -1.507831 2.106410 1.814420
v 1.309856 3.048034 -3.571358
v 1.309856 3.048019 1.824992
v 1.309856 1.926617 2.150337
v 1.187148 3.195728 1.778863
v 1.309856 0.482515 -3.571358
v 1.309857 0.896922 -2.462885
v 1.309856 1.500351 2.960601
v 1.309857 1.122567 2.195899
v 1.187148 3.195728 -3.571358
v 0.667851 1.122567 2.195899
v 1.309857 0.920245 2.434727
v 0.667851 0.920245 2.434727
v 1.309858 0.574254 2.960601
v 1.309858 0.574254 2.595972
v 1.309857 0.896912 -1.457872
v 0.667850 0.896922 -2.462884
v 0.667851 0.482509 1.286404
v 1.309857 0.903531 1.519617
v 0.667850 0.903531 1.519617
v 0.667850 0.896911 -1.457872
v 0.667850 0.482509 -2.578799
v 1.309856 0.482509 -2.578799
v 1.309857 0.482509 -1.346276
v 1.309857 0.482509 1.286404
v 1.309857 1.112958 1.744848
v 1.309857 1.153943 1.984106
v 0.667850 1.112958 1.744848
v 0.667850 1.153943 1.984106
v 0.667850 0.482508 -1.346276
v 0.667851 0.574254 2.595972
v 1.583252 2.436496 1.745782
v 1.583252 2.436496 1.841484
v 1.583251 2.103993 1.841485
v 1.583251 2.103993 1.745781
v 1.373082 2.436496 1.745782
v 1.373082 2.103993 1.745781
v 1.373082 2.103993 1.841485
v 1.373083 2.436496 1.841484
v 1.445226 2.773315 1.796345
v 1.306218 2.773806 1.796346
v 1.306218 2.836417 1.778272
v 1.507837 2.836600 1.778271
v 1.306217 2.836417 1.814420
v 1.507837 2.836600 1.814420
v 1.507832 2.436160 1.778271
v 1.445221 2.436160 1.796345
v 1.507832 2.436160 1.814420
v 1.445225 1.971373 1.796345
v 1.507836 1.932599 1.778271
v 1.306217 1.857224 1.778272
v 1.306217 1.919835 1.796346
v 1.507836 1.932599 1.814419
v 1.306217 1.857224 1.814420
v 1.445221 2.106411 1.796345
v 1.507832 2.106411 1.778271
v 1.507832 2.106411 1.814420
v -1.358631 0.482521 3.073875
v -1.358631 0.742983 3.073878
v -1.380004 0.742983 2.888490
v -1.380004 0.482521 2.888489
v -1.177619 0.482521 2.958956
v -1.177619 0.482521 3.124777
v -1.177619 0.742983 2.958956
v -1.177619 0.742983 3.124777
v 0.000000 0.482522 2.958972
v 0.000000 0.482522 3.124777
v 0.000000 0.742983 3.124777
v 0.000000 0.742983 2.958973
v -1.309864 0.642805 -3.571366
v -1.309864 0.642805 -3.709544
v -1.309855 0.482522 -3.709546
v -1.019203 0.482521 -3.767357
v -1.019203 0.482521 -3.571365
v -1.019203 0.642806 -3.767345
v -1.019203 0.642805 -3.571366
v 0.000000 0.482522 -3.767346
v 0.000000 0.642806 -3.767346
v 0.000000 0.642806 -3.571366
v 1.358631 0.482522 3.073875
v 1.380005 0.482522 2.888489
v 1.380005 0.742984 2.888490
v 1.358632 0.742984 3.073878
v 1.177620 0.482522 3.124777
v 1.177620 0.482522 2.958956
v 1.177620 0.742984 2.958956
v 1.177620 0.742984 3.124777
v 1.309855 0.482522 -3.709547
v 1.309864 0.642806 -3.709545
v 1.309864 0.642806 -3.571366
v 1.019203 0.482522 -3.571366
v 1.019204 0.482522 -3.767357
v 1.019204 0.642806 -3.767346
v 1.019203 0.642806 -3.571366
v -0.917793 0.521599 2.530555
v -0.917793 0.922818 2.368453
v -1.267207 0.922818 2.368453
v -1.267207 0.521598 2.530555
v -0.917793 0.123268 2.361475
v -1.267206 0.123269 2.361475
v -0.917793 -0.038836 1.960256
v -1.267208 -0.038836 1.960256
v -0.917793 0.130246 1.561925
v -1.267206 0.130246 1.561925
v -0.917793 0.531465 1.399822
v -1.267207 0.531465 1.399822
v -0.917793 0.929794 1.568903
v -1.267207 0.929796 1.568902
v -0.917793 1.091898 1.970123
v -1.267207 1.091899 1.970123
v -0.917793 0.521599 -1.399905
v -0.917793 0.922818 -1.562007
v -1.267207 0.922818 -1.562007
v -1.267207 0.521598 -1.399905
v -0.917793 0.123268 -1.568985
v -1.267206 0.123269 -1.568985
v -0.917793 -0.038836 -1.970204
v -1.267208 -0.038836 -1.970204
v -0.917793 0.130246 -2.368534
v -1.267206 0.130246 -2.368534
v -0.917793 0.531465 -2.530637
v -1.267207 0.531465 -2.530637
v -0.917793 0.929794 -2.361556
v -1.267207 0.929796 -2.361557
v -0.917793 1.091898 -1.960336
v -1.267207 1.091899 -1.960336
v 0.917793 0.521599 2.530555
v 1.267206 0.521598 2.530555
v 1.267206 0.922818 2.368453
v 0.917793 0.922818 2.368453
v 0.917793 0.123269 2.361475
v 1.267206 0.123269 2.361475
v 0.917793 -0.038835 1.960256
v 1.267208 -0.038835 1.960256
v 0.917793 0.130247 1.561925
v 1.267206 0.130247 1.561925
v 0.917793 0.531466 1.399822
v 1.267206 0.531466 1.399822
v 0.917793 0.929795 1.568903
v 1.267206 0.929796 1.568902
v 0.917793 1.091899 1.970123
v 1.267206 1.091900 1.970123
v 0.917793 0.521599 -1.399904
v 1.267207 0.521598 -1.399905
v 1.267207 0.922818 -1.562007
v 0.917793 0.922818 -1.562007
v 0.917793 0.123269 -1.568985
v 1.267207 0.123269 -1.568985
v 0.917793 -0.038835 -1.970204
v 1.267208 -0.038835 -1.970205
v 0.917793 0.130247 -2.368535
v 1.267207 0.130247 -2.368535
v 0.917793 0.531466 -2.530637
v 1.267207 0.531466 -2.530637
v 0.917793 0.929795 -2.361557
v 1.267207 0.929796 -2.361558
v 0.917793 1.091899 -1.960337
v 1.267207 1.091900 -1.960337
vn -1.0000 -0.0000 -0.0000
vn -0.7692 0.6390 -0.0000
vn 0.0011 0.2798 0.9601
vn -0.0000 0.2786 0.9604
vn -0.0000 0.2799 0.9600
vn -0.0000 0.2809 0.9597
vn -0.0000 0.2981 0.9545
vn -0.0000 -0.0000 -1.0000
vn -0.0000 0.8850 0.4656
vn -0.0000 1.0000 -0.0000
vn -0.0000 -0.7630 -0.6464
vn -0.0000 -1.0000 -0.0000
vn -0.0000 -0.4845 0.8748
vn -0.0000 -0.2694 0.9630
vn -0.0000 -0.0000 1.0000
vn -0.0000 -0.4224 -0.9064
vn -0.0000 -0.2600 -0.9656
vn -0.0000 -0.9856 0.1688
vn -0.0000 -0.7323 0.6809
vn -0.0000 -0.9892 -0.1465
vn 1.0000 -0.0000 -0.0000
vn -0.0000 -0.2753 -0.9614
vn 0.0006 -0.2766 -0.9610
vn 0.0010 -0.2773 -0.9608
vn 0.0009 1.0000 -0.0000
vn -0.0000 -0.2753 0.9614
vn 0.0006 -0.2766 0.9610
vn -0.0002 -0.2749 0.9615
vn 0.2773 -0.0000 -0.9608
vn 0.2774 -0.0000 0.9608
vn 0.1036 0.2773 -0.9552
vn 0.1027 0.2764 -0.9555
vn 0.1038 0.2776 -0.9551
vn -0.3502 -0.9367 -0.0000
vn 0.1027 0.2764 0.9555
vn 0.1035 0.2773 0.9552
vn 0.1038 0.2776 0.9551
vn 0.2774 -0.0000 -0.9608
vn 0.7692 0.6390 -0.0000
vn -0.0011 0.2798 0.9601
vn -0.0006 -0.2766 -0.9610
vn 0.0002 -0.2748 -0.9615
vn -0.0009 1.0000 -0.0000
vn -0.0006 -0.2766 0.9610
vn 0.0002 -0.2749 0.9615
vn -0.2773 -0.0000 -0.9608
vn -0.2774 -0.0000 0.9608
vn -0.1036 0.2773 -0.9552
vn -0.1027 0.2764 -0.9555
vn -0.1023 0.2759 -0.9557
vn 0.3502 -0.9367 -0.0000
vn -0.1035 0.2773 0.9552
vn -0.1027 0.2764 0.9555
vn -0.1038 0.2776 0.9551
vn -0.0000 -0.9976 0.0699
vn -0.9934 -0.0000 0.1145
vn 0.3288 -0.0000 -0.9444
vn -0.2707 -0.0000 0.9627
vn -1.0000 -0.0001 -0.0000
vn -0.0000 -1.0000 -0.0001
vn -0.1951 -0.0000 -0.9808
vn -0.1951 0.0001 -0.9808
vn -0.0000 0.0001 -1.0000
vn 0.9934 -0.0000 0.1145
vn -0.3288 -0.0000 -0.9444
vn 0.2707 -0.0000 0.9627
vn 1.0000 -0.0001 -0.0000
vn 0.1951 -0.0000 -0.9808
vn 0.1950 -0.0000 -0.9808
vn -0.0000 0.3746 0.9272
vn -0.0000 -0.3907 0.9205
vn -0.0000 -0.9272 0.3746
vn -0.0000 -0.9205 -0.3907
vn -0.0000 -0.3746 -0.9272
vn -0.0000 0.3907 -0.9205
vn -0.0000 0.9272 -0.3746
vn -0.0000 0.9205 0.3907
vn -0.0002 -0.2748 -0.9615
vn 0.0010 -0.2773 0.9608
vn 0.1023 0.2759 -0.9557
vn 0.1023 0.2759 0.9557
vn -0.0010 -0.2773 -0.9608
vn -0.0010 -0.2773 0.9608
vn -0.1038 0.2776 -0.9551
vn -0.1023 0.2759 0.9557
vn -0.1950 -0.0000 -0.9808
vn 0.1951 0.0001 -0.9808
vt 0.045869 0.389930
vt 0.859745 0.230416
vt 0.813467 0.389928
vt 0.806905 0.410939
vt 0.574999 0.952496
vt 0.575000 0.792984
vt 0.761319 0.792983
vt 0.761319 0.973508
vt 0.592454 0.973507
vt 0.975000 0.587641
vt 0.974996 0.952571
vt 0.788676 0.973578
vt 0.536319 0.859746
vt 0.536319 0.975001
vt 0.350000 0.975000
vt 0.203543 0.083948
vt 0.975000 0.169782
vt 0.866226 0.116044
vt 0.045869 0.410939
vt 0.045869 0.415621
vt 0.806903 0.584486
vt 0.788682 0.587638
vt 0.858166 0.023369
vt 0.876606 0.023369
vt 0.876606 0.072940
vt 0.350000 0.859745
vt 0.900198 0.087265
vt 0.923134 0.038050
vt 0.975000 0.038050
vt 0.878165 0.071908
vt 0.800566 0.071908
vt 0.800566 0.022338
vt 0.816287 0.018435
vt 0.848796 0.018435
vt 0.848796 0.068006
vt 0.878165 0.022338
vt 0.852865 0.072222
vt 0.820868 0.072222
vt 0.820868 0.022651
vt 0.187055 0.025000
vt 0.045869 0.584486
vt 0.957541 0.973579
vt 0.045869 0.025000
vt 0.575000 0.750000
vt 0.575000 0.618268
vt 0.761319 0.618268
vt 0.761319 0.750000
vt 0.855261 0.074448
vt 0.828546 0.074448
vt 0.828546 0.024878
vt 0.845699 0.070344
vt 0.813701 0.070344
vt 0.813701 0.020773
vt 0.816287 0.068006
vt 0.802067 0.114677
vt 0.836100 0.120507
vt 0.841812 0.072940
vt 0.823339 0.072940
vt 0.823339 0.023369
vt 0.841812 0.023369
vt 0.845699 0.020773
vt 0.852865 0.022652
vt 0.855261 0.024878
vt 0.858166 0.072940
vt 0.805948 0.023369
vt 0.805948 0.072940
vt 0.770029 0.084888
vt 0.346499 0.083946
vt 0.736856 0.025000
vt 0.362373 0.025000
vt 0.885653 0.025493
vt 0.799437 0.057491
vt 0.790487 0.025493
vt 0.888742 0.030011
vt 0.805634 0.055435
vt 0.787627 0.022927
vt 0.841498 0.074770
vt 0.876292 0.056726
vt 0.857851 0.072348
vt 0.347869 0.725067
vt 0.384076 0.761274
vt 0.384076 0.725067
vt 0.347869 0.761274
vt 0.347869 0.836274
vt 0.447869 0.761274
vt 0.370973 0.728586
vt 0.380533 0.757267
vt 0.370973 0.757267
vt 0.361413 0.728586
vt 0.351852 0.757267
vt 0.351852 0.728586
vt 0.361413 0.757267
vt 0.380533 0.728586
vt 0.404481 0.717954
vt 0.390686 0.661384
vt 0.433182 0.717954
vt 0.404481 0.661384
vt 0.446977 0.717954
vt 0.433182 0.661384
vt 0.446977 0.661384
vt 0.404481 0.746093
vt 0.433182 0.746093
vt 0.433182 0.634899
vt 0.404481 0.634899
vt 0.446977 0.753928
vt 0.418831 0.753928
vt 0.390686 0.746093
vt 0.390686 0.753928
vt 0.390686 0.613572
vt 0.418831 0.613572
vt 0.446977 0.613572
vt 0.446977 0.634899
vt 0.950000 0.522913
vt 0.911944 0.550000
vt 0.950000 0.550000
vt 0.974212 0.497371
vt 0.950001 0.496465
vt 0.871593 0.029946
vt 0.842023 0.068002
vt 0.871593 0.068002
vt 0.911944 0.522913
vt 0.887735 0.497415
vt 0.885000 0.527095
vt 0.911944 0.496465
vt 0.974212 0.325307
vt 0.887739 0.325351
vt 0.950003 0.324402
vt 0.503420 0.830000
vt 0.480000 0.809810
vt 0.480000 0.830001
vt 0.511864 0.809810
vt 0.532054 0.767343
vt 0.532055 0.809810
vt 0.503420 0.767343
vt 0.480000 0.767343
vt 0.511864 0.810867
vt 0.532054 0.768398
vt 0.503419 0.768398
vt 0.503419 0.618426
vt 0.503417 0.767343
vt 0.532054 0.618426
vt 0.805934 0.068002
vt 0.842023 0.029946
vt 0.805934 0.029946
vt 0.911944 0.522912
vt 0.976952 0.527046
vt 0.911946 0.324402
vt 0.503420 0.809812
vt 0.532053 0.810867
vt 0.057429 0.665895
vt 0.094859 0.615895
vt 0.057430 0.615895
vt 0.020000 0.615894
vt 0.020000 0.665894
vt 0.282007 0.665896
vt 0.319437 0.615897
vt 0.282007 0.615896
vt 0.244578 0.615896
vt 0.244578 0.665896
vt 0.207148 0.665896
vt 0.207148 0.615896
vt 0.169718 0.665896
vt 0.169719 0.615896
vt 0.132289 0.665895
vt 0.132289 0.615895
vt 0.094859 0.665895
vt 0.159718 0.680281
vt 0.053852 0.935867
vt 0.010000 0.830000
vt 0.053852 0.724133
vt 0.309437 0.830000
vt 0.265585 0.724133
vt 0.265585 0.935867
vt 0.159718 0.979719
vt 0.319437 0.665897
vt 0.877036 0.057490
vt 0.823025 0.071606
vt 0.447869 0.836274
vt 0.390686 0.717954
vt 0.446977 0.746093
vt 0.390686 0.634899
vt 0.503420 0.809811
vt 0.480000 0.618426
s 1
usemtl car8_mat
f 1/1/1 2/2/1 3/3/1
f 1/1/2 3/3/2 4/4/2
f 3/5/3 2/6/4 5/7/5
f 5/7/5 6/8/6 3/5/3
f 6/8/7 4/9/7 3/5/7
f 7/10/8 1/11/8 8/12/8
f 9/13/9 5/14/9 2/15/9
f 10/16/1 2/2/1 1/1/1
f 11/17/1 2/2/1 12/18/1
f 4/4/2 13/19/2 1/1/2
f 13/20/10 4/4/10 6/21/10
f 8/12/8 14/22/8 7/10/8
f 15/23/11 16/24/11 17/25/11
f 2/15/9 11/26/9 9/13/9
f 17/27/1 18/28/1 19/29/1
f 20/30/12 10/31/12 21/32/12
f 22/33/13 23/34/13 24/35/13
f 21/32/12 25/36/12 20/30/12
f 10/37/14 26/38/14 27/39/14
f 26/40/1 10/16/1 1/1/1
f 6/21/10 8/41/10 13/20/10
f 1/11/8 13/42/8 8/12/8
f 7/43/1 26/40/1 1/1/1
f 11/44/15 19/45/15 28/46/15
f 28/46/15 9/47/15 11/44/15
f 18/48/16 17/49/16 16/50/16
f 29/51/17 20/52/17 25/53/17
f 24/35/13 30/54/13 22/33/13
f 31/55/1 32/56/1 2/2/1
f 32/57/18 31/58/18 33/59/18
f 33/59/18 34/60/18 32/57/18
f 25/53/17 35/61/17 29/51/17
f 27/39/14 21/62/14 10/37/14
f 16/50/16 36/63/16 18/48/16
f 17/25/11 12/64/11 15/23/11
f 23/65/19 33/59/19 31/58/19
f 31/58/19 24/66/19 23/65/19
f 24/67/1 31/55/1 2/2/1
f 34/60/20 15/23/20 12/64/20
f 32/56/1 12/18/1 2/2/1
f 12/64/20 32/57/20 34/60/20
f 20/68/1 24/67/1 2/2/1
f 10/16/1 20/68/1 2/2/1
f 30/69/1 20/68/1 29/70/1
f 20/68/1 30/69/1 24/67/1
f 11/17/1 12/18/1 17/27/1
f 17/27/1 19/29/1 11/17/1
f 35/71/1 21/72/1 27/73/1
f 36/74/1 23/75/1 22/76/1
f 34/77/1 23/75/1 16/78/1
f 15/79/1 34/77/1 16/78/1
f 38/80/1 40/81/1 37/82/1
f 42/83/21 44/82/21 41/80/21
f 41/84/8 38/85/8 37/83/8
f 43/83/15 40/82/15 39/80/15
f 42/83/10 37/82/10 40/80/10
f 38/82/12 43/83/12 39/80/12
f 45/86/22 47/87/23 48/88/24
f 49/89/25 47/90/25 46/91/25
f 45/86/26 50/92/27 49/89/28
f 45/86/29 52/93/29 46/93/29
f 46/91/1 53/89/1 49/89/1
f 45/86/30 53/89/30 51/86/30
f 54/86/31 56/87/32 57/93/33
f 56/90/34 59/89/34 57/91/34
f 58/92/35 54/86/36 59/89/37
f 60/93/29 54/86/29 57/93/38
f 59/89/1 60/91/1 57/91/1
f 54/86/30 62/89/30 59/89/30
f 63/1/21 64/3/21 65/2/21
f 63/1/39 66/4/39 64/3/39
f 64/5/40 5/7/5 65/6/4
f 5/7/5 64/5/40 6/8/6
f 6/8/7 64/5/7 66/9/7
f 67/10/8 8/12/8 63/11/8
f 9/13/9 65/15/9 5/14/9
f 68/16/21 63/1/21 65/2/21
f 69/17/21 70/18/21 65/2/21
f 66/4/39 63/1/39 71/19/39
f 71/20/10 6/21/10 66/4/10
f 8/12/8 67/10/8 14/22/8
f 72/23/11 73/25/11 74/24/11
f 65/15/9 9/13/9 69/26/9
f 73/27/21 75/29/21 76/28/21
f 77/30/12 78/32/12 68/31/12
f 79/33/13 80/35/13 81/34/13
f 78/32/12 77/30/12 82/36/12
f 68/37/14 83/39/14 84/38/14
f 84/40/21 63/1/21 68/16/21
f 6/21/10 71/20/10 8/41/10
f 63/11/8 8/12/8 71/42/8
f 67/43/21 63/1/21 84/40/21
f 69/44/15 28/46/15 75/45/15
f 28/46/15 69/44/15 9/47/15
f 76/48/16 74/50/16 73/49/16
f 85/51/17 82/53/17 77/52/17
f 80/35/13 79/33/13 86/54/13
f 87/55/21 65/2/21 88/56/21
f 88/57/18 89/59/18 87/58/18
f 89/59/18 88/57/18 90/60/18
f 82/53/17 85/51/17 91/61/17
f 83/39/14 68/37/14 78/62/14
f 74/50/16 76/48/16 92/63/16
f 73/25/11 72/23/11 70/64/11
f 81/65/19 87/58/19 89/59/19
f 87/58/19 81/65/19 80/66/19
f 80/67/21 65/2/21 87/55/21
f 90/60/20 70/64/20 72/23/20
f 88/56/21 65/2/21 70/18/21
f 70/64/20 90/60/20 88/57/20
f 77/68/21 65/2/21 80/67/21
f 68/16/21 65/2/21 77/68/21
f 86/69/21 85/70/21 77/68/21
f 77/68/21 80/67/21 86/69/21
f 69/17/21 73/27/21 70/18/21
f 73/27/21 69/17/21 75/29/21
f 78/72/21 91/71/21 83/73/21
f 92/74/21 81/75/21 74/78/21
f 81/75/21 90/77/21 74/78/21
f 72/79/21 74/78/21 90/77/21
f 94/81/21 96/80/21 93/82/21
f 97/80/1 99/81/1 100/83/1
f 96/85/8 97/84/8 93/83/8
f 95/80/15 100/81/15 99/83/15
f 93/82/10 100/83/10 94/80/10
f 99/83/12 96/82/12 95/80/12
f 101/86/22 103/87/41 104/93/42
f 103/90/43 106/89/43 104/91/43
f 105/92/44 101/86/26 106/89/45
f 107/93/46 101/86/46 104/93/46
f 109/89/21 104/91/21 106/89/21
f 101/86/47 109/89/47 106/89/47
f 110/86/48 112/87/49 113/88/50
f 114/89/51 112/90/51 111/91/51
f 110/86/52 115/92/53 114/89/54
f 110/86/46 117/93/46 111/93/46
f 114/89/21 117/91/21 118/89/21
f 110/86/47 118/89/47 116/86/47
f 22/94/12 29/95/12 79/96/12
f 79/96/12 35/97/12 86/98/12
f 86/98/12 91/99/12 85/100/12
f 36/101/55 79/96/55 92/102/55
f 83/103/12 35/97/12 27/104/12
f 92/102/12 75/105/12 36/101/12
f 36/101/12 28/106/12 18/107/12
f 28/106/12 19/108/12 18/107/12
f 27/104/12 7/109/12 83/103/12
f 83/103/12 14/110/12 67/111/12
f 67/111/12 84/112/12 83/103/12
f 119/113/56 121/114/56 122/115/56
f 119/113/12 123/116/12 124/117/12
f 121/118/57 123/119/57 122/120/57
f 120/121/10 125/122/10 121/123/10
f 120/121/58 124/117/58 126/124/58
f 127/125/12 124/117/12 123/116/12
f 126/124/10 130/126/10 125/122/10
f 128/127/15 126/124/15 124/117/15
f 131/128/59 133/129/59 7/130/59
f 133/131/12 135/132/12 7/133/60
f 133/129/61 136/134/62 134/135/62
f 132/136/10 137/137/10 136/138/10
f 138/139/12 135/132/12 134/140/12
f 139/139/8 134/135/63 136/134/63
f 140/141/10 136/138/10 137/137/10
f 127/142/8 125/143/8 130/144/8
f 141/113/64 143/114/64 144/145/64
f 141/113/12 146/116/12 142/146/12
f 146/119/65 143/118/65 142/120/65
f 147/122/10 144/121/10 143/123/10
f 148/124/66 141/113/66 144/121/66
f 145/117/12 127/125/12 146/116/12
f 148/124/10 130/126/10 129/147/10
f 148/124/15 128/127/15 145/117/15
f 149/129/67 151/128/67 67/130/67
f 152/132/12 149/131/12 67/133/60
f 149/129/68 154/134/68 150/148/69
f 150/136/10 155/137/10 151/149/10
f 152/132/12 138/139/12 153/140/12
f 153/135/63 139/139/8 154/134/63
f 155/137/10 139/139/10 140/141/10
f 130/144/8 146/119/8 127/142/8
f 156/150/70 158/151/70 159/152/70
f 156/150/71 161/153/71 160/154/71
f 162/155/72 161/156/72 163/157/72
f 162/155/73 165/158/73 164/159/73
f 166/160/74 165/158/74 167/161/74
f 168/162/75 167/161/75 169/163/75
f 170/164/76 169/163/76 171/165/76
f 170/164/77 158/151/77 157/166/77
f 164/167/21 156/168/21 160/169/21
f 160/169/21 162/170/21 164/167/21
f 168/171/21 164/167/21 166/172/21
f 170/173/21 157/174/21 168/171/21
f 167/172/1 171/173/1 169/171/1
f 167/172/1 165/167/1 163/170/1
f 171/173/1 161/169/1 159/168/1
f 158/174/1 171/173/1 159/168/1
f 172/150/70 174/151/70 175/152/70
f 172/150/71 177/153/71 176/154/71
f 178/155/72 177/156/72 179/157/72
f 178/155/73 181/158/73 180/159/73
f 182/160/74 181/158/74 183/161/74
f 184/162/75 183/161/75 185/163/75
f 186/164/76 185/163/76 187/165/76
f 186/164/77 174/151/77 173/166/77
f 180/167/21 172/168/21 176/169/21
f 176/169/21 178/170/21 180/167/21
f 184/171/21 180/167/21 182/172/21
f 186/173/21 173/174/21 184/171/21
f 183/172/1 187/173/1 185/171/1
f 183/172/1 181/167/1 179/170/1
f 187/173/1 177/169/1 175/168/1
f 174/174/1 187/173/1 175/168/1
f 188/150/70 190/151/70 191/166/70
f 192/154/71 189/152/71 188/150/71
f 194/155/72 193/156/72 192/175/72
f 197/158/73 194/155/73 196/159/73
f 199/161/74 196/159/74 198/160/74
f 200/162/75 199/161/75 198/160/75
f 203/165/76 200/162/76 202/164/76
f 190/151/77 202/164/77 191/166/77
f 188/168/1 196/167/1 192/169/1
f 192/169/1 196/167/1 194/170/1
f 200/171/1 196/167/1 191/174/1
f 202/173/1 200/171/1 191/174/1
f 199/172/21 203/173/21 195/170/21
f 199/172/21 195/170/21 197/167/21
f 189/168/21 195/170/21 203/173/21
f 190/174/21 189/168/21 203/173/21
f 204/150/70 206/151/70 207/166/70
f 208/154/71 205/152/71 204/150/71
f 210/155/72 209/156/72 208/175/72
f 212/159/73 211/157/73 210/155/73
f 215/161/74 212/159/74 214/160/74
f 216/162/75 215/161/75 214/160/75
f 219/165/76 216/162/76 218/164/76
f 206/151/77 218/164/77 207/166/77
f 204/168/1 212/167/1 208/169/1
f 208/169/1 212/167/1 210/170/1
f 214/172/1 207/174/1 216/171/1
f 218/173/1 216/171/1 207/174/1
f 215/172/21 219/173/21 211/170/21
f 215/172/21 211/170/21 213/167/21
f 205/168/21 211/170/21 219/173/21
f 206/174/21 205/168/21 219/173/21
f 35/71/1 25/176/1 21/72/1
f 36/74/1 16/78/1 23/75/1
f 34/77/1 33/177/1 23/75/1
f 38/80/1 39/83/1 40/81/1
f 42/83/21 43/81/21 44/82/21
f 41/84/8 44/178/8 38/85/8
f 43/83/15 42/81/15 40/82/15
f 42/83/10 41/81/10 37/82/10
f 38/82/12 44/81/12 43/83/12
f 45/86/22 46/93/78 47/87/23
f 49/89/25 50/92/25 47/90/25
f 45/86/26 48/88/79 50/92/27
f 45/86/29 51/86/29 52/93/29
f 46/91/1 52/91/1 53/89/1
f 45/86/30 49/89/30 53/89/30
f 54/86/31 55/88/80 56/87/32
f 56/90/34 58/92/34 59/89/34
f 58/92/35 55/88/81 54/86/36
f 60/93/29 61/86/29 54/86/29
f 59/89/1 62/89/1 60/91/1
f 54/86/30 61/86/30 62/89/30
f 78/72/21 82/176/21 91/71/21
f 92/74/21 79/76/21 81/75/21
f 81/75/21 89/177/21 90/77/21
f 94/81/21 95/83/21 96/80/21
f 97/80/1 98/82/1 99/81/1
f 96/85/8 98/178/8 97/84/8
f 95/80/15 94/82/15 100/81/15
f 93/82/10 97/81/10 100/83/10
f 99/83/12 98/81/12 96/82/12
f 101/86/22 102/88/82 103/87/41
f 103/90/43 105/92/43 106/89/43
f 105/92/44 102/88/83 101/86/26
f 107/93/46 108/86/46 101/86/46
f 109/89/21 107/91/21 104/91/21
f 101/86/47 108/86/47 109/89/47
f 110/86/48 111/93/84 112/87/49
f 114/89/51 115/92/51 112/90/51
f 110/86/52 113/88/85 115/92/53
f 110/86/46 116/86/46 117/93/46
f 114/89/21 111/91/21 117/91/21
f 110/86/47 114/89/47 118/89/47
f 22/94/12 30/179/12 29/95/12
f 79/96/12 29/95/12 35/97/12
f 86/98/12 35/97/12 91/99/12
f 36/101/55 22/94/55 79/96/55
f 83/103/12 91/99/12 35/97/12
f 92/102/12 76/180/12 75/105/12
f 36/101/12 75/105/12 28/106/12
f 27/104/12 26/181/12 7/109/12
f 83/103/12 7/109/12 14/110/12
f 119/113/56 120/145/56 121/114/56
f 119/113/12 122/146/12 123/116/12
f 121/118/57 125/143/57 123/119/57
f 120/121/10 126/124/10 125/122/10
f 120/121/58 119/113/58 124/117/58
f 127/125/12 128/127/12 124/117/12
f 126/124/10 129/147/10 130/126/10
f 128/127/15 129/147/15 126/124/15
f 131/128/59 132/182/59 133/129/59
f 133/131/12 134/140/12 135/132/12
f 133/129/61 132/148/86 136/134/62
f 132/136/10 131/149/10 137/137/10
f 138/139/12 14/141/60 135/132/12
f 139/139/8 138/183/8 134/135/63
f 140/141/10 139/139/10 136/138/10
f 127/142/8 123/119/8 125/143/8
f 141/113/64 142/115/64 143/114/64
f 141/113/12 145/117/12 146/116/12
f 146/119/65 147/143/65 143/118/65
f 147/122/10 148/124/10 144/121/10
f 148/124/66 145/117/66 141/113/66
f 145/117/12 128/127/12 127/125/12
f 148/124/10 147/122/10 130/126/10
f 148/124/15 129/147/15 128/127/15
f 149/129/67 150/182/67 151/128/67
f 152/132/12 153/140/12 149/131/12
f 149/129/68 153/135/87 154/134/68
f 150/136/10 154/138/10 155/137/10
f 152/132/12 14/141/60 138/139/12
f 153/135/63 138/183/8 139/139/8
f 155/137/10 154/138/10 139/139/10
f 130/144/8 147/143/8 146/119/8
f 156/150/70 157/166/70 158/151/70
f 156/150/71 159/152/71 161/153/71
f 162/155/72 160/175/72 161/156/72
f 162/155/73 163/157/73 165/158/73
f 166/160/74 164/159/74 165/158/74
f 168/162/75 166/160/75 167/161/75
f 170/164/76 168/162/76 169/163/76
f 170/164/77 171/165/77 158/151/77
f 164/167/21 157/174/21 156/168/21
f 168/171/21 157/174/21 164/167/21
f 167/172/1 163/170/1 171/173/1
f 171/173/1 163/170/1 161/169/1
f 172/150/70 173/166/70 174/151/70
f 172/150/71 175/152/71 177/153/71
f 178/155/72 176/175/72 177/156/72
f 178/155/73 179/157/73 181/158/73
f 182/160/74 180/159/74 181/158/74
f 184/162/75 182/160/75 183/161/75
f 186/164/76 184/162/76 185/163/76
f 186/164/77 187/165/77 174/151/77
f 180/167/21 173/174/21 172/168/21
f 184/171/21 173/174/21 180/167/21
f 183/172/1 179/170/1 187/173/1
f 187/173/1 179/170/1 177/169/1
f 188/150/70 189/152/70 190/151/70
f 192/154/71 193/153/71 189/152/71
f 194/155/72 195/157/72 193/156/72
f 197/158/73 195/157/73 194/155/73
f 199/161/74 197/158/74 196/159/74
f 200/162/75 201/163/75 199/161/75
f 203/165/76 201/163/76 200/162/76
f 190/151/77 203/165/77 202/164/77
f 188/168/1 191/174/1 196/167/1
f 200/171/1 198/172/1 196/167/1
f 199/172/21 201/171/21 203/173/21
f 189/168/21 193/169/21 195/170/21
f 204/150/70 205/152/70 206/151/70
f 208/154/71 209/153/71 205/152/71
f 210/155/72 211/157/72 209/156/72
f 212/159/73 213/158/73 211/157/73
f 215/161/74 213/158/74 212/159/74
f 216/162/75 217/163/75 215/161/75
f 219/165/76 217/163/76 216/162/76
f 206/151/77 219/165/77 218/164/77
f 204/168/1 207/174/1 212/167/1
f 214/172/1 212/167/1 207/174/1
f 215/172/21 217/171/21 219/173/21
f 205/168/21 209/169/21 211/170/21
