# Blender 4.5.4 LTS
# www.blender.org
mtllib building1.mtl
o low-detail-building-c
v 0.200000 0.000000 0.200000
v -0.200000 0.000000 0.200000
v 0.200000 -0.000000 -0.200000
v -0.200000 -0.000000 -0.200000
v -0.200000 0.100000 -0.200000
v -0.200000 0.100000 0.200000
v 0.200000 0.100000 -0.200000
v 0.200000 0.100000 0.200000
v -0.230000 0.500000 0.250000
v 0.230000 0.500000 0.250000
v -0.250000 0.500000 0.230000
v 0.250000 0.500000 0.230000
v -0.250000 0.500000 -0.230000
v 0.250000 0.500000 -0.230000
v 0.230000 0.500000 -0.250000
v -0.230000 0.500000 -0.250000
v -0.230000 0.100000 0.250000
v -0.250000 0.100000 0.230000
v 0.230000 0.100000 0.250000
v 0.250000 0.100000 0.230000
v 0.250000 0.100000 -0.230000
v -0.250000 0.100000 -0.230000
v 0.230000 0.100000 -0.250000
v -0.230000 0.100000 -0.250000
v -0.250000 0.500000 -0.000000
v -0.250000 2.000000 -0.000000
v -0.250000 0.500000 0.230000
v -0.250000 2.000000 0.230000
v -0.230000 2.000000 0.250000
v -0.230000 0.500000 0.250000
v 0.230000 2.000000 0.250000
v 0.230000 0.500000 0.250000
v 0.250000 2.000000 0.230000
v 0.250000 0.500000 0.230000
v 0.250000 0.500000 -0.230000
v 0.250000 2.000000 -0.230000
v 0.230000 2.000000 -0.250000
v 0.230000 0.500000 -0.250000
v 0.000000 0.500000 -0.250000
v 0.000000 2.000000 -0.250000
v 0.200000 1.950000 -0.200000
v 0.200000 1.950000 0.200000
v 0.020711 1.950000 -0.200000
v -0.200000 1.950000 0.200000
v -0.200000 1.950000 0.020711
v -0.200000 2.000000 0.020711
v -0.200000 2.000000 0.200000
v 0.020711 2.000000 -0.200000
v 0.200000 2.000000 0.200000
v 0.200000 2.000000 -0.200000
v -0.193217 1.919697 -0.056783
v -0.193217 0.580303 -0.056783
v -0.157862 1.919697 -0.021427
v -0.157862 0.580303 -0.021427
v -0.021427 1.919697 -0.157862
v -0.056783 1.919697 -0.193218
v -0.056783 0.580303 -0.193217
v -0.021427 0.580303 -0.157862
v 0.075000 2.000000 0.050000
v 0.175000 2.000000 0.050000
v 0.075000 2.000000 -0.050000
v 0.175000 2.000000 -0.050000
v 0.075000 1.950000 -0.050000
v 0.075000 1.950000 0.050000
v 0.175000 1.950000 0.050000
v 0.175000 1.950000 -0.050000
v 0.075000 2.000000 0.175000
v 0.175000 2.000000 0.175000
v 0.075000 2.000000 0.075000
v 0.175000 2.000000 0.075000
v 0.075000 1.950000 0.075000
v 0.075000 1.950000 0.175000
v 0.175000 1.950000 0.175000
v 0.175000 1.950000 0.075000
v -0.175000 1.950000 0.175000
v -0.075000 1.950000 0.175000
v -0.175000 2.050000 0.175000
v -0.075000 2.050000 0.175000
v -0.175000 1.950000 0.075000
v -0.175000 2.050000 0.075000
v -0.075000 1.950000 0.075000
v -0.075000 2.050000 0.075000
v -0.112500 2.250000 0.112500
v -0.112500 2.250000 0.137500
v -0.137500 2.250000 0.112500
v -0.137500 2.250000 0.137500
v -0.140625 2.050000 0.140625
v -0.140625 2.050000 0.109375
v -0.109375 2.050000 0.140625
v -0.109375 2.050000 0.109375
vn -0.8247 0.4507 0.3416
vn -0.8298 -0.4210 0.3665
vn -0.5901 0.6576 0.4683
vn -0.3662 -0.2905 0.8840
vn -0.0438 0.6594 0.7505
vn 0.3470 -0.4214 0.8378
vn 0.8382 -0.3986 0.3722
vn 0.5525 0.6598 0.5094
vn 0.5334 -0.6600 -0.5289
vn 0.5283 -0.7680 -0.3620
vn -0.6018 -0.7189 -0.3479
vn 0.3015 -0.9045 -0.3015
vn 0.3015 -0.9045 0.3015
vn -0.3015 -0.9045 0.3015
vn -0.5896 0.6576 -0.4689
vn -0.5008 0.7767 -0.3821
vn -0.0036 0.6601 -0.7512
vn 0.5592 0.6595 -0.5023
vn 0.5774 -0.5774 0.5774
vn -0.5773 -0.5774 0.5773
vn -0.5774 -0.5774 -0.5774
vn 0.5773 -0.5774 -0.5773
vn 0.2449 -0.4137 0.8768
vn 0.4986 0.6594 0.5627
vn 0.3456 0.4296 0.8343
vn 0.8286 -0.4423 0.3433
vn 0.8429 -0.4237 -0.3315
vn 0.7508 0.6597 0.0315
vn 0.3574 0.3940 -0.8468
vn 0.3432 -0.4423 -0.8286
vn -0.3827 -0.0000 -0.9239
vn -0.2971 0.6302 -0.7173
vn 0.2971 0.6303 0.7173
vn -0.5774 0.5773 -0.5774
vn -0.5774 0.5774 0.5774
vn 0.3015 0.9045 -0.3015
vn 0.7173 0.6303 0.2971
vn 0.5491 0.8042 0.2275
vn 0.5774 0.5773 -0.5774
vn 0.2275 0.8042 0.5491
vn -0.3015 0.9045 -0.3015
vn -0.3015 0.9045 0.3015
vn -0.8165 0.5773 -0.0000
vn -0.8528 -0.3015 -0.4264
vn -0.8528 0.3015 -0.4264
vn -0.8165 -0.5774 -0.0000
vn -0.0000 0.5773 -0.8165
vn -0.4264 0.3015 -0.8528
vn -0.7173 0.6303 -0.2971
vn -0.0729 0.6723 0.7367
vn -0.4264 -0.3015 -0.8528
vn -0.9239 -0.0000 -0.3827
vn 0.5774 0.5774 -0.5774
vn 0.5773 0.5774 0.5773
vn 0.7071 -0.0000 -0.7071
vn 0.7071 -0.0000 0.7071
vn -0.7071 -0.0000 0.7071
vn -0.5773 0.5774 -0.5773
vn -0.7071 -0.0000 -0.7071
vn -0.5774 0.5774 -0.5774
vn 0.5774 0.5774 0.5774
vn 0.1854 0.9650 0.1855
vn -0.6921 0.7070 0.1452
vn 0.1155 0.7098 0.6949
vn -0.4183 -0.8062 0.4184
vn -0.3671 -0.8547 -0.3671
vn 0.2572 -0.8007 0.5410
vn 0.6833 0.6980 0.2143
vn 0.5410 -0.8007 -0.2572
vn -0.0000 -0.5773 -0.8165
vn -0.5901 -0.6576 -0.4683
vn -0.3015 -0.9045 -0.3015
vn -0.8408 -0.4215 0.3397
vn -0.7508 0.6597 -0.0315
vn -0.4274 -0.4246 0.7982
vt 0.468750 0.425000
vt 0.468750 0.345000
vt 0.468750 0.325000
vt 0.468750 0.421667
vt 0.468750 0.330353
vt 0.468750 0.419647
vt 0.093750 0.419647
vt 0.093750 0.330353
s 1
usemtl colormap
f 11/1/1 18/2/2 9/1/3
f 17/2/4 9/1/3 18/2/2
f 9/1/3 17/2/4 10/1/5
f 19/2/6 10/1/5 17/2/4
f 19/2/6 20/2/7 10/1/5
f 12/1/8 10/1/5 20/2/7
f 23/2/9 21/2/10 22/2/11
f 7/2/12 21/2/10 8/2/13
f 8/2/13 18/2/2 6/2/14
f 16/1/15 13/1/16 15/1/17
f 15/1/17 13/1/16 14/1/18
f 14/1/18 13/1/16 12/1/8
f 13/1/16 11/1/1 12/1/8
f 12/1/8 11/1/1 10/1/5
f 9/1/3 10/1/5 11/1/1
f 1/3/19 8/2/13 2/3/20
f 4/3/21 3/3/22 2/3/20
f 32/3/23 33/1/24 31/1/25
f 33/1/24 32/3/23 34/3/26
f 35/3/27 33/1/24 34/3/26
f 33/1/24 35/3/27 36/1/28
f 37/1/29 35/3/27 38/3/30
f 39/3/31 37/1/29 38/3/30
f 37/1/29 39/3/31 40/1/32
f 43/4/33 42/4/34 41/4/35
f 47/1/36 45/4/37 46/1/38
f 45/4/37 47/1/36 44/4/39
f 48/1/40 45/4/37 43/4/33
f 45/4/37 48/1/40 46/1/38
f 47/1/36 42/4/34 44/4/39
f 42/4/34 47/1/36 49/1/41
f 50/1/42 43/4/33 41/4/35
f 43/4/33 50/1/42 48/1/40
f 42/4/34 50/1/42 41/4/35
f 50/1/42 42/4/34 49/1/41
f 58/5/43 56/6/44 57/5/45
f 56/6/44 58/5/43 55/6/46
f 57/5/45 54/5/47 58/5/43
f 54/5/47 57/5/45 52/5/48
f 31/1/25 37/1/29 50/1/42
f 50/1/42 37/1/29 40/1/32
f 49/1/41 31/1/25 50/1/42
f 50/1/42 40/1/32 48/1/40
f 48/1/40 40/1/32 46/1/38
f 46/1/38 40/1/32 26/1/49
f 29/1/50 49/1/41 47/1/36
f 52/5/48 26/1/49 51/6/51
f 25/3/52 52/5/48 39/3/31
f 57/5/45 39/3/31 52/5/48
f 62/1/53 60/1/54 66/3/55
f 65/3/56 66/3/55 60/1/54
f 65/3/56 60/1/54 64/3/57
f 59/1/35 64/3/57 60/1/54
f 59/1/35 61/1/58 64/3/57
f 63/3/59 64/3/57 61/1/58
f 62/1/53 61/1/58 60/1/54
f 71/3/59 69/1/58 74/3/55
f 71/3/59 72/3/57 69/1/58
f 70/1/53 69/1/58 68/1/54
f 67/1/35 68/1/54 69/1/58
f 80/1/60 77/1/35 82/1/53
f 78/1/61 82/1/53 77/1/35
f 81/3/55 82/1/53 76/3/56
f 78/1/61 76/3/56 82/1/53
f 80/1/60 82/1/53 79/3/59
f 84/1/62 85/1/63 86/1/64
f 85/1/63 87/3/65 86/1/64
f 87/3/65 84/1/62 86/1/64
f 87/3/65 85/1/63 88/3/66
f 84/1/62 87/3/65 89/3/67
f 89/3/67 83/1/68 84/1/62
f 83/1/68 89/3/67 90/3/69
f 53/7/70 58/8/43 54/8/47
f 58/8/43 53/7/70 55/7/46
f 11/1/1 13/1/16 18/2/2
f 22/2/11 18/2/2 13/1/16
f 22/2/11 13/1/16 24/2/71
f 16/1/15 24/2/71 13/1/16
f 24/2/71 16/1/15 23/2/9
f 15/1/17 23/2/9 16/1/15
f 23/2/9 15/1/17 21/2/10
f 20/2/7 21/2/10 12/1/8
f 14/1/18 21/2/10 15/1/17
f 14/1/18 12/1/8 21/2/10
f 24/2/71 23/2/9 22/2/11
f 21/2/10 5/2/72 22/2/11
f 5/2/72 6/2/14 22/2/11
f 5/2/72 21/2/10 7/2/12
f 22/2/11 6/2/14 18/2/2
f 21/2/10 20/2/7 8/2/13
f 8/2/13 20/2/7 18/2/2
f 20/2/7 19/2/6 18/2/2
f 17/2/4 18/2/2 19/2/6
f 6/2/14 2/3/20 8/2/13
f 7/2/12 8/2/13 3/3/22
f 1/3/19 3/3/22 8/2/13
f 7/2/12 3/3/22 5/2/72
f 4/3/21 5/2/72 3/3/22
f 6/2/14 5/2/72 2/3/20
f 4/3/21 2/3/20 5/2/72
f 1/3/19 2/3/20 3/3/22
f 27/3/73 26/1/49 25/3/52
f 26/1/49 27/3/73 28/1/74
f 27/3/73 29/1/50 28/1/74
f 29/1/50 27/3/73 30/3/75
f 30/3/75 31/1/25 29/1/50
f 31/1/25 30/3/75 32/3/23
f 35/3/27 37/1/29 36/1/28
f 42/4/34 43/4/33 44/4/39
f 44/4/39 43/4/33 45/4/37
f 53/6/70 52/5/48 51/6/51
f 52/5/48 53/6/70 54/5/47
f 53/6/70 56/6/44 55/6/46
f 56/6/44 53/6/70 51/6/51
f 37/1/29 33/1/24 36/1/28
f 33/1/24 37/1/29 31/1/25
f 31/1/25 49/1/41 29/1/50
f 29/1/50 26/1/49 28/1/74
f 46/1/38 26/1/49 47/1/36
f 47/1/36 26/1/49 29/1/50
f 51/6/51 26/1/49 56/6/44
f 52/5/48 25/3/52 26/1/49
f 40/1/32 56/6/44 26/1/49
f 40/1/32 57/5/45 56/6/44
f 39/3/31 57/5/45 40/1/32
f 62/1/53 66/3/55 61/1/58
f 63/3/59 61/1/58 66/3/55
f 59/1/35 60/1/54 61/1/58
f 70/1/53 74/3/55 69/1/58
f 70/1/53 68/1/54 74/3/55
f 73/3/56 74/3/55 68/1/54
f 73/3/56 68/1/54 72/3/57
f 67/1/35 72/3/57 68/1/54
f 67/1/35 69/1/58 72/3/57
f 81/3/55 79/3/59 82/1/53
f 80/1/60 79/3/59 77/1/35
f 75/3/57 77/1/35 79/3/59
f 78/1/61 77/1/35 76/3/56
f 75/3/57 76/3/56 77/1/35
f 85/1/63 84/1/62 83/1/68
f 85/1/63 90/3/69 88/3/66
f 90/3/69 85/1/63 83/1/68
