# Blender 4.5.4 LTS
# www.blender.org
mtllib hospital.mtl
o low-detail-building-h
v 0.225000 1.100000 0.225000
v 0.225000 1.000000 0.225000
v 0.225000 1.100000 -0.225000
v 0.225000 1.000000 -0.225000
v -0.225000 1.000000 0.225000
v -0.225000 1.100000 0.225000
v -0.225000 1.000000 -0.225000
v -0.225000 1.100000 -0.225000
v 0.225000 1.350000 0.225000
v 0.225000 1.250000 0.225000
v 0.225000 1.350000 -0.225000
v 0.225000 1.250000 -0.225000
v -0.225000 1.250000 0.225000
v -0.225000 1.350000 0.225000
v -0.225000 1.250000 -0.225000
v -0.225000 1.350000 -0.225000
v 0.225000 1.600000 0.225000
v 0.225000 1.500000 0.225000
v 0.225000 1.600000 -0.225000
v 0.225000 1.500000 -0.225000
v -0.225000 1.500000 0.225000
v -0.225000 1.600000 0.225000
v -0.225000 1.500000 -0.225000
v -0.225000 1.600000 -0.225000
v 0.225000 1.850000 0.225000
v 0.225000 1.750000 0.225000
v 0.225000 1.850000 -0.225000
v 0.225000 1.750000 -0.225000
v -0.225000 1.750000 0.225000
v -0.225000 1.850000 0.225000
v -0.225000 1.750000 -0.225000
v -0.226403 1.850013 -0.224928
v 0.225000 0.600000 0.225000
v 0.225000 0.500000 0.225000
v 0.225000 0.600000 -0.225000
v 0.225000 0.500000 -0.225000
v -0.225000 0.500000 0.225000
v -0.225000 0.600000 0.225000
v -0.225000 0.500000 -0.225000
v -0.225000 0.600000 -0.225000
v 0.225000 0.850000 0.225000
v 0.225000 0.750000 0.225000
v 0.225000 0.850000 -0.225000
v 0.225000 0.750000 -0.225000
v -0.225000 0.750000 0.225000
v -0.225000 0.850000 0.225000
v -0.225000 0.750000 -0.225000
v -0.225000 0.850000 -0.225000
v 0.200000 2.050000 0.200000
v 0.200000 2.050000 -0.200000
v -0.200000 2.050000 0.200000
v -0.200000 2.050000 -0.200000
v 0.250000 1.100000 -0.230000
v 0.250000 1.100000 0.230000
v 0.230000 1.100000 -0.250000
v 0.230000 1.100000 0.250000
v -0.230000 1.100000 -0.250000
v -0.230000 1.100000 0.250000
v -0.250000 1.100000 -0.230000
v -0.250000 1.100000 0.230000
v 0.250000 1.250000 0.230000
v 0.250000 1.250000 -0.230000
v 0.230000 1.250000 0.250000
v 0.230000 1.250000 -0.250000
v -0.230000 1.250000 0.250000
v -0.230000 1.250000 -0.250000
v -0.250000 1.250000 0.230000
v -0.250000 1.250000 -0.230000
v 0.250000 1.500000 0.230000
v 0.250000 1.500000 -0.230000
v 0.230000 1.500000 0.250000
v 0.230000 1.500000 -0.250000
v -0.230000 1.500000 0.250000
v -0.230000 1.500000 -0.250000
v -0.250000 1.500000 0.230000
v -0.250000 1.500000 -0.230000
v 0.250000 1.350000 -0.230000
v 0.250000 1.350000 0.230000
v 0.230000 1.350000 -0.250000
v 0.230000 1.350000 0.250000
v -0.230000 1.350000 -0.250000
v -0.230000 1.350000 0.250000
v -0.250000 1.350000 -0.230000
v -0.250000 1.350000 0.230000
v 0.250000 1.600000 -0.230000
v 0.250000 1.600000 0.230000
v 0.230000 1.600000 -0.250000
v 0.230000 1.600000 0.250000
v -0.230000 1.600000 -0.250000
v -0.230000 1.600000 0.250000
v -0.250000 1.600000 -0.230000
v -0.250000 1.600000 0.230000
v 0.250000 1.750000 0.230000
v 0.250000 1.750000 -0.230000
v 0.230000 1.750000 0.250000
v 0.230000 1.750000 -0.250000
v -0.230000 1.750000 0.250000
v -0.230000 1.750000 -0.250000
v -0.250000 1.750000 0.230000
v -0.250000 1.750000 -0.230000
v 0.250000 2.000000 0.230000
v 0.250000 2.000000 -0.230000
v 0.230000 2.000000 0.250000
v 0.230000 2.000000 -0.250000
v -0.230000 2.000000 0.250000
v -0.230000 2.000000 -0.250000
v -0.250000 2.000000 0.230000
v -0.250000 2.000000 -0.230000
v 0.250000 1.850000 -0.230000
v 0.250000 1.850000 0.230000
v 0.230000 1.850000 -0.250000
v 0.230000 1.850000 0.250000
v -0.230000 1.850000 -0.250000
v -0.230000 1.850000 0.250000
v -0.250000 1.850000 -0.230000
v -0.250000 1.850000 0.230000
v 0.200000 -0.000000 -0.200000
v 0.200000 0.000000 0.200000
v -0.200000 -0.000000 -0.200000
v -0.200000 0.000000 0.200000
v -0.200000 0.100000 0.200000
v 0.200000 0.100000 0.200000
v -0.200000 0.100000 -0.200000
v 0.200000 0.100000 -0.200000
v 0.250000 0.500000 0.230000
v 0.250000 0.500000 -0.230000
v 0.230000 0.500000 0.250000
v 0.230000 0.500000 -0.250000
v -0.230000 0.500000 0.250000
v -0.230000 0.500000 -0.250000
v -0.250000 0.500000 0.230000
v -0.250000 0.500000 -0.230000
v 0.250000 0.100000 -0.230000
v 0.250000 0.100000 0.230000
v 0.230000 0.100000 -0.250000
v 0.230000 0.100000 0.250000
v -0.230000 0.100000 -0.250000
v -0.230000 0.100000 0.250000
v -0.250000 0.100000 -0.230000
v -0.250000 0.100000 0.230000
v -0.037302 2.111867 -0.150874
v -0.037302 2.050000 -0.150874
v 0.030892 2.111867 -0.150874
v 0.030892 2.050000 -0.150874
v 0.250000 0.600000 -0.230000
v 0.250000 0.600000 0.230000
v 0.230000 0.600000 -0.250000
v 0.230000 0.600000 0.250000
v -0.230000 0.600000 -0.250000
v -0.230000 0.600000 0.250000
v -0.250000 0.600000 -0.230000
v -0.250000 0.600000 0.230000
v 0.250000 0.750000 0.230000
v 0.250000 0.750000 -0.230000
v 0.230000 0.750000 0.250000
v 0.230000 0.750000 -0.250000
v -0.230000 0.750000 0.250000
v -0.230000 0.750000 -0.250000
v -0.250000 0.750000 0.230000
v -0.250000 0.750000 -0.230000
v 0.250000 1.000000 0.230000
v 0.250000 1.000000 -0.230000
v 0.230000 1.000000 0.250000
v 0.230000 1.000000 -0.250000
v -0.230000 1.000000 0.250000
v -0.230000 1.000000 -0.250000
v -0.250000 1.000000 0.230000
v -0.250000 1.000000 -0.230000
v 0.250000 0.850000 -0.230000
v 0.250000 0.850000 0.230000
v 0.230000 0.850000 -0.250000
v 0.230000 0.850000 0.250000
v -0.230000 0.850000 -0.250000
v -0.230000 0.850000 0.250000
v -0.250000 0.850000 -0.230000
v -0.250000 0.850000 0.230000
v -0.200000 2.100000 -0.200000
v 0.200000 2.100000 -0.200000
v 0.200000 2.100000 0.200000
v -0.200000 2.100000 0.200000
v 0.250000 2.100000 0.230000
v 0.250000 2.100000 -0.230000
v 0.230000 2.100000 0.250000
v 0.230000 2.100000 -0.250000
v -0.230000 2.100000 0.250000
v -0.230000 2.100000 -0.250000
v -0.250000 2.100000 0.230000
v -0.250000 2.100000 -0.230000
v -0.037302 2.050000 0.137683
v -0.037302 2.111867 0.137683
v 0.030892 2.050000 0.137683
v 0.030892 2.111867 0.137683
v -0.139490 2.050000 -0.047538
v -0.139490 2.113383 -0.047538
v 0.139649 2.050000 -0.047538
v 0.139649 2.113383 -0.047538
v -0.139490 2.050000 0.026576
v -0.139490 2.113383 0.026576
v 0.139649 2.050000 0.026576
v 0.139649 2.113383 0.026576
vn 0.3015 0.9045 -0.3015
vn -0.3015 0.9045 -0.3015
vn 0.3015 -0.9045 -0.3015
vn 0.3015 -0.9045 0.3015
vn -0.3015 -0.9045 0.3015
vn 0.3015 0.9045 0.3015
vn -0.3015 0.9045 0.3015
vn -0.3015 -0.9045 -0.3015
vn -0.7071 -0.0000 -0.7071
vn -0.7071 -0.0000 0.7071
vn 0.7071 -0.0000 -0.7071
vn 0.7071 -0.0000 0.7071
vn -0.2988 -0.9069 -0.2970
vn -0.3022 0.9034 -0.3042
vn 0.5774 0.5774 0.5774
vn 0.5773 0.5774 -0.5773
vn -0.5773 0.5774 0.5773
vn -0.5774 0.5774 -0.5774
vn 0.8680 -0.3424 -0.3595
vn 0.8064 0.5908 0.0272
vn 0.7506 -0.6596 -0.0386
vn 0.3938 -0.4363 -0.8091
vn -0.5092 -0.6598 0.5527
vn -0.3814 -0.4652 0.7988
vn -0.8705 0.3350 0.3606
vn -0.4569 -0.6567 -0.6000
vn -0.8356 -0.3420 -0.4299
vn -0.3396 0.4609 -0.8199
vn -0.5092 0.6597 -0.5527
vn -0.0987 -0.6568 0.7475
vn 0.0769 -0.6110 0.7879
vn -0.3501 0.4037 0.8452
vn -0.8356 0.3420 0.4299
vn -0.3508 0.3998 -0.8468
vn 0.3604 -0.7644 -0.5346
vn 0.0353 0.6597 -0.7507
vn 0.3681 0.7808 0.5049
vn -0.3004 0.7650 0.5696
vn 0.0691 0.6585 -0.7494
vn 0.2998 -0.7840 0.5435
vn 0.8680 0.3424 0.3596
vn 0.8064 -0.5908 -0.0272
vn 0.7506 0.6596 0.0386
vn 0.4811 -0.6585 0.5787
vn 0.3452 0.4314 0.8335
vn 0.5092 -0.6598 -0.5527
vn -0.3392 0.4632 0.8188
vn -0.1080 -0.6157 -0.7806
vn 0.3447 0.4344 -0.8322
vn -0.0987 0.6568 -0.7475
vn 0.8286 0.4423 0.3432
vn 0.8526 0.4348 -0.2900
vn 0.2554 0.4204 0.8706
vn 0.3626 0.4479 -0.8173
vn 0.3452 -0.4314 -0.8335
vn -0.3626 0.4479 0.8173
vn -0.8526 0.4348 0.2900
vn -0.3396 -0.4609 0.8199
vn -0.2554 0.4204 -0.8706
vn -0.3391 -0.4635 -0.8187
vn -0.8680 -0.3424 0.3596
vn -0.7506 -0.6596 0.0386
vn -0.0000 1.0000 -0.0000
vn -0.8680 -0.3424 0.3595
vn -0.8758 0.4816 0.0317
vn -0.7505 -0.6594 0.0431
vn 0.3635 -0.4323 -0.8252
vn 0.8719 0.3308 -0.3611
vn 0.7505 -0.6594 -0.0431
vn -0.3363 -0.7555 -0.5623
vn -0.3527 -0.7482 0.5620
vn 0.0656 -0.6586 0.7496
vn -0.7509 0.6597 0.0307
vn -0.5085 0.6597 -0.5533
vn -0.3680 0.7807 0.5051
vn 0.5773 -0.5774 0.5773
vn -0.5773 -0.5774 -0.5773
vn 0.5774 -0.5774 -0.5774
vn -0.5774 -0.5774 0.5774
vn 0.0657 -0.6586 -0.7496
vn -0.4569 0.6567 0.6000
vn -0.3814 0.4652 -0.7988
vn 0.5092 0.6598 0.5527
vn 0.4063 0.4054 0.8189
vn 0.8705 -0.3350 0.3606
vn 0.8680 -0.3424 -0.3596
vn 0.5059 0.6597 -0.5558
vn 0.7509 0.6597 -0.0307
vn 0.7442 0.6668 0.0385
vn 0.4836 0.6586 0.5765
vn 0.0691 -0.6585 0.7494
vn 0.7509 -0.6598 0.0307
vn 0.7442 -0.6668 -0.0385
vn -0.3558 -0.4488 -0.8198
vn -0.8518 -0.4367 -0.2895
vn -0.3397 0.4602 -0.8202
vn 0.0729 0.6273 -0.7753
vn 0.2609 -0.4238 -0.8674
vn 0.8141 0.3521 -0.4619
vn 0.8680 0.3424 0.3595
vn 0.8518 -0.4367 0.2895
vn -0.0000 -1.0000 -0.0000
vn -0.1010 0.6567 0.7474
vn 0.1842 0.7897 0.5852
vn -0.3015 -0.9045 0.3016
vn 0.3938 0.4363 0.8091
vn -0.8286 0.4423 -0.3432
vn 0.0317 0.6597 0.7508
vn 0.0903 0.5192 -0.8498
vn -0.8286 -0.4423 0.3432
vn -0.7882 0.6146 -0.0325
vn -0.2609 -0.4238 0.8674
vn -0.8680 0.3424 -0.3595
vn 0.3558 -0.4488 0.8198
vn 0.8286 -0.4423 -0.3432
vn -0.0000 -0.0000 -1.0000
vn 1.0000 -0.0000 -0.0000
vn -0.0000 -0.0000 1.0000
vn -1.0000 -0.0000 -0.0000
vt 0.093750 0.375000
vt 0.093750 0.395000
vt 0.093750 0.345000
vt 0.093750 0.325000
vt 0.468750 0.345000
vt 0.468750 0.375000
vt 0.468750 0.395000
vt 0.468750 0.425000
vt 0.468750 0.325000
vt 0.488044 0.516438
vt 0.380706 0.508219
vt 0.382133 0.512158
vt 0.492324 0.511072
vt 0.375000 0.500000
vt 0.490897 0.507133
vt 0.375000 0.750000
vt 0.493751 0.741440
vt 0.379280 0.748914
vt 0.380366 0.742867
vt 0.380366 0.508560
vt 0.492801 0.507800
vt 0.441700 0.748050
vt 0.443650 0.503900
vt 0.489471 0.509305
vt 0.384986 0.506792
vt 0.380706 0.507878
vt 0.493751 0.509646
vt 0.490897 0.505706
vt 0.493751 0.741781
vt 0.382133 0.747487
vt 0.380366 0.741440
vt 0.380366 0.507133
vt 0.496700 0.503900
vt 0.495298 0.507940
vt 0.441700 0.505850
vt 0.496604 0.738928
vt 0.498650 0.746100
vt 0.489471 0.501767
vt 0.498111 0.745590
s 1
usemtl colormap.001
f 12/1/1 15/1/2 11/2/3
f 9/2/4 14/2/5 10/1/6
f 13/1/7 10/1/6 14/2/5
f 12/1/1 11/2/3 10/1/6
f 8/3/8 7/4/9 6/3/5
f 5/4/10 6/3/5 7/4/9
f 4/4/11 3/3/3 2/4/12
f 32/2/13 27/2/3 31/1/14
f 28/1/1 31/1/14 27/2/3
f 25/2/4 26/1/6 27/2/3
f 20/4/11 23/4/9 19/3/3
f 21/4/10 18/4/12 22/3/5
f 48/2/8 43/2/3 47/1/2
f 44/1/1 47/1/2 43/2/3
f 48/2/8 47/1/2 46/2/5
f 45/1/7 46/2/5 47/1/2
f 45/1/7 42/1/6 46/2/5
f 40/3/8 39/4/9 38/3/5
f 40/3/8 35/3/3 39/4/9
f 36/4/11 39/4/9 35/3/3
f 52/1/15 51/1/16 50/1/17
f 49/1/18 50/1/17 51/1/16
f 53/5/19 62/6/20 54/5/21
f 53/5/19 55/5/22 62/6/20
f 60/5/23 58/5/24 67/6/25
f 57/5/26 59/5/27 66/6/28
f 68/6/29 66/6/28 59/5/27
f 68/6/29 59/5/27 67/6/25
f 77/7/19 70/8/20 78/7/21
f 82/7/30 80/7/31 73/8/32
f 73/8/32 75/8/33 82/7/30
f 81/7/26 83/7/27 74/8/34
f 14/7/5 9/7/4 82/7/30
f 82/7/30 9/7/4 80/7/31
f 16/7/8 81/7/26 11/7/3
f 11/7/3 79/7/35 80/7/31
f 74/8/34 73/8/32 72/8/36
f 73/8/32 71/8/37 72/8/36
f 72/8/36 71/8/37 70/8/20
f 15/6/2 12/6/1 66/6/28
f 15/6/2 65/6/38 13/6/7
f 66/6/28 12/6/1 64/6/39
f 13/6/7 65/6/38 10/6/6
f 10/6/6 64/6/39 12/6/1
f 60/5/23 59/5/27 58/5/24
f 59/5/27 57/5/26 58/5/24
f 57/5/26 6/5/5 58/5/24
f 3/5/3 56/5/40 1/5/4
f 57/5/26 55/5/22 3/5/3
f 3/5/3 55/5/22 56/5/40
f 56/5/40 55/5/22 54/5/21
f 93/6/41 86/5/42 94/6/43
f 88/5/44 86/5/42 95/6/45
f 85/5/46 87/5/22 94/6/43
f 90/5/30 88/5/44 97/6/47
f 87/5/22 89/5/48 96/6/49
f 97/6/47 99/6/33 90/5/30
f 98/6/50 96/6/49 89/5/48
f 92/5/23 90/5/30 99/6/33
f 89/5/48 91/5/27 98/6/50
f 92/5/23 99/6/33 91/5/27
f 100/6/29 98/6/50 91/5/27
f 100/6/29 91/5/27 99/6/33
f 101/8/51 110/7/42 102/8/52
f 101/8/51 103/8/53 110/7/42
f 112/7/44 110/7/42 103/8/53
f 104/8/54 102/8/52 111/7/55
f 103/8/53 105/8/56 112/7/44
f 105/8/56 107/8/57 114/7/58
f 106/8/59 104/8/54 113/7/60
f 116/7/61 107/8/57 115/7/62
f 116/7/61 115/7/62 114/7/58
f 115/7/62 113/7/60 114/7/58
f 112/7/44 111/7/55 110/7/42
f 108/8/63 107/8/63 106/8/63
f 107/8/63 105/8/63 106/8/63
f 106/8/63 105/8/63 104/8/63
f 105/8/63 103/8/63 104/8/63
f 99/6/33 97/6/47 98/6/50
f 31/6/14 28/6/1 98/6/50
f 31/6/14 97/6/47 29/6/7
f 98/6/50 28/6/1 96/6/49
f 29/6/7 97/6/47 26/6/6
f 26/6/6 96/6/49 28/6/1
f 97/6/47 95/6/45 26/6/6
f 26/6/6 95/6/45 96/6/49
f 96/6/49 95/6/45 94/6/43
f 93/6/41 94/6/43 95/6/45
f 22/5/5 17/5/4 90/5/30
f 19/5/3 88/5/44 17/5/4
f 19/5/3 87/5/22 88/5/44
f 88/5/44 87/5/22 86/5/42
f 85/5/46 86/5/42 87/5/22
f 140/5/64 131/8/65 139/5/66
f 133/5/46 135/5/67 126/8/68
f 133/5/46 126/8/68 134/5/69
f 137/5/70 121/5/5 138/5/71
f 121/5/5 122/5/4 138/5/71
f 121/5/5 137/5/70 123/5/8
f 138/5/71 122/5/4 136/5/72
f 123/5/8 137/5/70 124/5/3
f 124/5/3 136/5/72 122/5/4
f 137/5/70 135/5/67 124/5/3
f 124/5/3 135/5/67 136/5/72
f 136/5/72 135/5/67 134/5/69
f 133/5/46 134/5/69 135/5/67
f 132/8/73 131/8/65 130/8/74
f 131/8/65 129/8/75 130/8/74
f 122/5/4 118/9/76 124/5/3
f 123/5/8 124/5/3 119/9/77
f 117/9/78 119/9/77 124/5/3
f 122/5/4 121/5/5 118/9/76
f 120/9/79 118/9/76 121/5/5
f 117/9/78 118/9/76 119/9/77
f 147/5/80 149/5/48 156/6/49
f 157/6/81 159/6/33 150/5/58
f 152/5/61 159/6/33 151/5/62
f 160/6/29 158/6/82 151/5/62
f 161/8/83 163/8/84 170/7/85
f 169/7/86 162/8/20 170/7/85
f 169/7/86 171/7/22 162/8/20
f 164/8/87 162/8/20 171/7/22
f 174/7/30 172/7/31 165/8/32
f 176/7/23 174/7/30 167/8/25
f 173/7/26 175/7/27 166/8/34
f 176/7/23 167/8/25 175/7/27
f 168/8/29 166/8/34 175/7/27
f 168/8/29 175/7/27 167/8/25
f 175/7/27 173/7/26 174/7/30
f 173/7/26 46/7/5 174/7/30
f 46/7/5 173/7/26 48/7/8
f 48/7/8 173/7/26 43/7/3
f 43/7/3 172/7/31 41/7/4
f 43/7/3 171/7/22 172/7/31
f 172/7/31 171/7/22 170/7/85
f 165/8/32 163/8/84 164/8/87
f 164/8/87 163/8/84 162/8/20
f 157/6/81 47/6/2 158/6/82
f 47/6/2 44/6/1 158/6/82
f 158/6/82 44/6/1 156/6/49
f 153/6/88 154/6/89 155/6/90
f 149/5/48 38/5/5 150/5/58
f 150/5/58 33/5/4 148/5/91
f 40/5/8 149/5/48 35/5/3
f 149/5/48 147/5/80 35/5/3
f 35/5/3 147/5/80 148/5/91
f 145/5/92 146/5/93 147/5/80
f 106/9/94 108/9/95 186/8/96
f 186/8/96 184/8/97 106/9/94
f 104/9/98 106/9/94 184/8/97
f 184/8/97 182/8/99 104/9/98
f 181/8/100 101/9/101 182/8/99
f 107/9/102 108/9/102 105/9/102
f 108/9/102 106/9/102 105/9/102
f 106/9/102 104/9/102 103/9/102
f 103/9/102 104/9/102 101/9/102
f 102/9/102 101/9/102 104/9/102
f 186/8/96 178/8/7 184/8/97
f 185/8/103 183/8/104 179/8/2
f 179/8/2 183/8/104 184/8/97
f 184/8/97 183/8/104 182/8/99
f 181/8/100 182/8/99 183/8/104
f 52/6/15 177/8/6 51/6/16
f 180/8/1 51/6/16 177/8/6
f 16/2/8 11/2/3 15/1/2
f 16/2/8 15/1/2 14/2/5
f 13/1/7 14/2/5 15/1/2
f 9/2/4 10/1/6 11/2/3
f 8/3/8 3/3/3 7/4/9
f 4/4/11 7/4/9 3/3/3
f 1/3/4 6/3/5 2/4/12
f 5/4/10 2/4/12 6/3/5
f 1/3/4 2/4/12 3/3/3
f 32/2/13 31/1/14 30/2/105
f 29/1/7 30/2/105 31/1/14
f 25/2/4 30/2/105 26/1/6
f 29/1/7 26/1/6 30/2/105
f 28/1/1 27/2/3 26/1/6
f 24/3/8 23/4/9 22/3/5
f 21/4/10 22/3/5 23/4/9
f 24/3/8 19/3/3 23/4/9
f 17/3/4 22/3/5 18/4/12
f 20/4/11 19/3/3 18/4/12
f 17/3/4 18/4/12 19/3/3
f 41/2/4 46/2/5 42/1/6
f 44/1/1 43/2/3 42/1/6
f 41/2/4 42/1/6 43/2/3
f 37/4/10 38/3/5 39/4/9
f 33/3/4 38/3/5 34/4/12
f 37/4/10 34/4/12 38/3/5
f 36/4/11 35/3/3 34/4/12
f 33/3/4 34/4/12 35/3/3
f 61/6/41 54/5/21 62/6/20
f 61/6/41 63/6/106 54/5/21
f 56/5/40 54/5/21 63/6/106
f 64/6/39 62/6/20 55/5/22
f 63/6/106 65/6/38 56/5/40
f 58/5/24 56/5/40 65/6/38
f 55/5/22 57/5/26 64/6/39
f 65/6/38 67/6/25 58/5/24
f 66/6/28 64/6/39 57/5/26
f 60/5/23 67/6/25 59/5/27
f 69/8/41 78/7/21 70/8/20
f 69/8/41 71/8/37 78/7/21
f 80/7/31 78/7/21 71/8/37
f 77/7/19 79/7/35 70/8/20
f 72/8/36 70/8/20 79/7/35
f 71/8/37 73/8/32 80/7/31
f 79/7/35 81/7/26 72/8/36
f 74/8/34 72/8/36 81/7/26
f 84/7/23 82/7/30 75/8/33
f 84/7/23 75/8/33 83/7/27
f 76/8/29 74/8/34 83/7/27
f 76/8/29 83/7/27 75/8/33
f 84/7/23 83/7/27 82/7/30
f 83/7/27 81/7/26 82/7/30
f 81/7/26 14/7/5 82/7/30
f 14/7/5 81/7/26 16/7/8
f 11/7/3 80/7/31 9/7/4
f 81/7/26 79/7/35 11/7/3
f 80/7/31 79/7/35 78/7/21
f 77/7/19 78/7/21 79/7/35
f 76/8/29 75/8/33 74/8/34
f 75/8/33 73/8/32 74/8/34
f 69/8/41 70/8/20 71/8/37
f 68/6/29 67/6/25 66/6/28
f 67/6/25 65/6/38 66/6/28
f 65/6/38 15/6/2 66/6/28
f 65/6/38 63/6/106 10/6/6
f 10/6/6 63/6/106 64/6/39
f 64/6/39 63/6/106 62/6/20
f 61/6/41 62/6/20 63/6/106
f 6/5/5 1/5/4 58/5/24
f 6/5/5 57/5/26 8/5/8
f 58/5/24 1/5/4 56/5/40
f 8/5/8 57/5/26 3/5/3
f 53/5/19 54/5/21 55/5/22
f 93/6/41 95/6/45 86/5/42
f 85/5/46 94/6/43 86/5/42
f 96/6/49 94/6/43 87/5/22
f 95/6/45 97/6/47 88/5/44
f 109/7/86 102/8/52 110/7/42
f 109/7/86 111/7/55 102/8/52
f 114/7/58 112/7/44 105/8/56
f 111/7/55 113/7/60 104/8/54
f 116/7/61 114/7/58 107/8/57
f 113/7/60 115/7/62 106/8/59
f 108/8/107 106/8/59 115/7/62
f 108/8/107 115/7/62 107/8/57
f 113/7/60 30/7/105 114/7/58
f 30/7/105 25/7/4 114/7/58
f 30/7/105 113/7/60 32/7/13
f 114/7/58 25/7/4 112/7/44
f 32/7/13 113/7/60 27/7/3
f 27/7/3 112/7/44 25/7/4
f 113/7/60 111/7/55 27/7/3
f 27/7/3 111/7/55 112/7/44
f 109/7/86 110/7/42 111/7/55
f 104/8/63 103/8/63 102/8/63
f 101/8/63 102/8/63 103/8/63
f 100/6/29 99/6/33 98/6/50
f 97/6/47 31/6/14 98/6/50
f 92/5/23 91/5/27 90/5/30
f 91/5/27 89/5/48 90/5/30
f 89/5/48 22/5/5 90/5/30
f 22/5/5 89/5/48 24/5/8
f 90/5/30 17/5/4 88/5/44
f 24/5/8 89/5/48 19/5/3
f 89/5/48 87/5/22 19/5/3
f 140/5/64 138/5/71 131/8/65
f 132/8/73 139/5/66 131/8/65
f 129/8/75 131/8/65 138/5/71
f 132/8/73 130/8/74 139/5/66
f 137/5/70 139/5/66 130/8/74
f 138/5/71 136/5/72 129/8/75
f 127/8/108 129/8/75 136/5/72
f 130/8/74 128/8/109 137/5/70
f 136/5/72 134/5/69 127/8/108
f 135/5/67 137/5/70 128/8/109
f 125/8/83 127/8/108 134/5/69
f 128/8/109 126/8/68 135/5/67
f 125/8/83 134/5/69 126/8/68
f 140/5/64 139/5/66 138/5/71
f 139/5/66 137/5/70 138/5/71
f 130/8/74 129/8/75 128/8/109
f 129/8/75 127/8/108 128/8/109
f 128/8/109 127/8/108 126/8/68
f 125/8/83 126/8/68 127/8/108
f 117/9/78 124/5/3 118/9/76
f 123/5/8 119/9/77 121/5/5
f 120/9/79 121/5/5 119/9/77
f 120/9/79 119/9/77 118/9/76
f 153/6/88 146/5/93 154/6/89
f 153/6/88 155/6/90 146/5/93
f 145/5/92 154/6/89 146/5/93
f 148/5/91 146/5/93 155/6/90
f 145/5/92 147/5/80 154/6/89
f 156/6/49 154/6/89 147/5/80
f 155/6/90 157/6/81 148/5/91
f 150/5/58 148/5/91 157/6/81
f 158/6/82 156/6/49 149/5/48
f 152/5/61 150/5/58 159/6/33
f 149/5/48 151/5/62 158/6/82
f 160/6/29 151/5/62 159/6/33
f 161/8/83 170/7/85 162/8/20
f 172/7/31 170/7/85 163/8/84
f 163/8/84 165/8/32 172/7/31
f 171/7/22 173/7/26 164/8/87
f 165/8/32 167/8/25 174/7/30
f 166/8/34 164/8/87 173/7/26
f 176/7/23 175/7/27 174/7/30
f 46/7/5 41/7/4 174/7/30
f 174/7/30 41/7/4 172/7/31
f 173/7/26 171/7/22 43/7/3
f 169/7/86 170/7/85 171/7/22
f 168/8/29 167/8/25 166/8/34
f 167/8/25 165/8/32 166/8/34
f 166/8/34 165/8/32 164/8/87
f 161/8/83 162/8/20 163/8/84
f 160/6/29 159/6/33 158/6/82
f 159/6/33 157/6/81 158/6/82
f 47/6/2 157/6/81 45/6/7
f 45/6/7 157/6/81 42/6/6
f 42/6/6 156/6/49 44/6/1
f 157/6/81 155/6/90 42/6/6
f 42/6/6 155/6/90 156/6/49
f 156/6/49 155/6/90 154/6/89
f 152/5/61 151/5/62 150/5/58
f 151/5/62 149/5/48 150/5/58
f 38/5/5 33/5/4 150/5/58
f 38/5/5 149/5/48 40/5/8
f 35/5/3 148/5/91 33/5/4
f 148/5/91 147/5/80 146/5/93
f 107/9/110 187/8/111 108/9/95
f 107/9/110 105/9/112 187/8/111
f 188/8/113 108/9/95 187/8/111
f 185/8/103 187/8/111 105/9/112
f 188/8/113 186/8/96 108/9/95
f 105/9/112 103/9/114 185/8/103
f 183/8/104 185/8/103 103/9/114
f 103/9/114 101/9/101 183/8/104
f 181/8/100 183/8/104 101/9/101
f 102/9/115 104/9/98 182/8/99
f 102/9/115 182/8/99 101/9/101
f 105/9/102 106/9/102 103/9/102
f 188/8/113 187/8/111 186/8/96
f 187/8/111 185/8/103 186/8/96
f 185/8/103 177/8/6 186/8/96
f 177/8/6 178/8/7 186/8/96
f 177/8/6 185/8/103 180/8/1
f 180/8/1 185/8/103 179/8/2
f 179/8/2 184/8/97 178/8/7
f 180/8/1 179/8/2 51/6/16
f 49/6/18 51/6/16 179/8/2
f 178/8/7 50/6/17 179/8/2
f 49/6/18 179/8/2 50/6/17
f 178/8/7 177/8/6 50/6/17
f 52/6/15 50/6/17 177/8/6
s 0
f 141/10/116 144/11/116 142/12/116
f 143/13/117 191/14/117 144/11/117
f 192/15/118 189/16/118 191/14/118
f 190/17/119 142/18/119 189/16/119
f 191/14/102 142/19/102 144/20/102
f 143/21/63 190/22/63 192/23/63
f 194/24/116 195/25/116 193/26/116
f 196/27/117 199/14/117 195/25/117
f 200/28/118 197/16/118 199/14/118
f 197/16/119 194/29/119 193/30/119
f 199/14/102 193/31/102 195/32/102
f 196/33/63 198/34/63 200/35/63
f 141/10/116 143/13/116 144/11/116
f 143/13/117 192/15/117 191/14/117
f 192/15/118 190/17/118 189/16/118
f 190/17/119 141/36/119 142/18/119
f 191/14/102 189/16/102 142/19/102
f 143/21/63 141/37/63 190/22/63
f 194/24/116 196/27/116 195/25/116
f 196/27/117 200/28/117 199/14/117
f 200/28/118 198/38/118 197/16/118
f 197/16/119 198/38/119 194/29/119
f 199/14/102 197/16/102 193/31/102
f 196/33/63 194/39/63 198/34/63
