# Blender 4.5.4 LTS
# www.blender.org
mtllib building2.mtl
o low-detail-building-l
v 0.250000 1.500000 -0.125000
v 0.250000 -0.000000 -0.125000
v 0.250000 1.500000 -0.230000
v 0.250000 -0.000000 -0.230000
v 0.230000 1.500000 -0.250000
v 0.230000 -0.000000 -0.250000
v 0.125000 1.500000 -0.250000
v 0.125000 -0.000000 -0.250000
v -0.125000 -0.000000 -0.250000
v -0.230000 -0.000000 -0.250000
v -0.125000 1.500000 -0.250000
v -0.230000 1.500000 -0.250000
v -0.250000 -0.000000 -0.230000
v -0.250000 1.500000 -0.230000
v -0.250000 1.500000 -0.125000
v -0.250000 -0.000000 -0.125000
v 0.125000 0.000000 0.250000
v 0.230000 0.000000 0.250000
v 0.125000 1.500000 0.250000
v 0.230000 1.500000 0.250000
v 0.250000 1.500000 0.230000
v 0.250000 0.000000 0.230000
v 0.250000 1.500000 0.125000
v 0.250000 0.000000 0.125000
v -0.250000 1.500000 0.125000
v -0.250000 0.000000 0.125000
v -0.250000 1.500000 0.230000
v -0.250000 0.000000 0.230000
v -0.230000 1.500000 0.250000
v -0.230000 0.000000 0.250000
v -0.125000 1.500000 0.250000
v -0.125000 0.000000 0.250000
v -0.225000 0.000000 0.125000
v -0.225000 1.500000 0.125000
v -0.225000 -0.000000 -0.125000
v -0.225000 1.500000 -0.125000
v 0.125000 -0.000000 -0.225000
v 0.125000 1.500000 -0.225000
v -0.125000 1.500000 -0.225000
v -0.125000 -0.000000 -0.225000
v 0.225000 0.000000 0.125000
v 0.225000 1.500000 0.125000
v 0.225000 -0.000000 -0.125000
v 0.225000 1.500000 -0.125000
v 0.125000 0.000000 0.225000
v 0.125000 1.500000 0.225000
v -0.125000 1.500000 0.225000
v -0.125000 0.000000 0.225000
v -0.175000 1.550000 -0.175000
v 0.175000 1.550000 -0.175000
v -0.175000 1.600000 -0.175000
v 0.175000 1.600000 -0.175000
v 0.175000 1.550000 0.175000
v 0.175000 1.600000 0.175000
v -0.175000 1.550000 0.175000
v -0.175000 1.600000 0.175000
v 0.225000 1.600000 0.205000
v 0.225000 1.600000 -0.205000
v 0.205000 1.600000 0.225000
v 0.205000 1.600000 -0.225000
v -0.205000 1.600000 0.225000
v -0.205000 1.600000 -0.225000
v -0.225000 1.600000 0.205000
v -0.225000 1.600000 -0.205000
v 0.225000 1.500000 -0.205000
v 0.225000 1.500000 0.205000
v 0.205000 1.500000 -0.225000
v -0.205000 1.500000 -0.225000
v 0.205000 1.500000 0.225000
v -0.205000 1.500000 0.225000
v -0.225000 1.500000 -0.205000
v -0.225000 1.500000 0.205000
v 0.012500 1.850000 -0.012500
v 0.012500 1.850000 0.012500
v -0.012500 1.850000 -0.012500
v -0.012500 1.850000 0.012500
v -0.018750 1.700000 0.018750
v 0.018750 1.700000 0.018750
v -0.018750 1.700000 -0.018750
v 0.018750 1.700000 -0.018750
v -0.075000 1.700000 -0.075000
v -0.075000 1.550000 -0.075000
v -0.075000 1.700000 0.075000
v -0.075000 1.550000 0.075000
v 0.075000 1.550000 0.075000
v 0.075000 1.700000 0.075000
v 0.075000 1.550000 -0.075000
v 0.075000 1.700000 -0.075000
vn -0.5774 0.5773 0.5774
vn 0.3450 0.7580 0.5536
vn 0.3015 0.9045 -0.3015
vn 0.3015 0.9045 0.3015
vn -0.0000 -0.0000 -0.0000
vn -0.2943 0.7715 -0.5641
vn 0.5773 0.5773 -0.5774
vn 0.5774 0.5773 0.5774
vn -0.7508 0.6597 0.0315
vn -0.3015 0.9045 -0.3015
vn -0.3015 0.9045 0.3015
vn -0.0322 0.6597 0.7508
vn -0.5774 -0.5773 -0.5774
vn -0.3015 -0.9045 -0.3015
vn -0.4123 -0.7556 0.5090
vn -0.3015 -0.9045 0.3015
vn 0.5774 -0.5773 0.5774
vn -0.4430 -0.6553 -0.6118
vn -0.3786 -0.7213 -0.5800
vn -0.5774 -0.5773 0.5774
vn 0.3015 -0.9045 0.3015
vn 0.3015 -0.9045 -0.3015
vn -0.5774 -0.5773 0.5773
vn -0.5773 -0.5774 0.5773
vn 0.4123 -0.7556 -0.5090
vn 0.7485 -0.6577 0.0852
vn 0.5774 0.5774 0.5774
vn 0.5774 -0.5774 -0.5774
vn 0.5774 0.5773 -0.5774
vn -0.5774 0.5773 -0.5774
vn -0.8842 0.2898 0.3663
vn -0.8807 -0.2907 0.3740
vn 0.7512 -0.6600 -0.0078
vn 0.8840 0.2906 0.3662
vn 0.5707 -0.6590 0.4899
vn 0.3578 0.3547 -0.8638
vn -0.5773 0.5774 -0.5773
vn -0.8286 -0.4423 0.3432
vn -0.7928 0.6086 -0.0324
vn -0.8513 -0.4368 -0.2907
vn -0.2610 -0.4238 0.8673
vn -0.3575 -0.4486 -0.8191
vn -0.3399 0.4594 -0.8206
vn 0.3575 -0.4486 0.8191
vn -0.3394 0.4620 0.8193
vn 0.0645 0.6587 0.7496
vn 0.5087 0.6597 0.5532
vn 0.8513 -0.4368 0.2907
vn 0.4816 0.6585 -0.5783
vn 0.8143 0.3509 -0.4624
vn 0.2610 -0.4238 -0.8673
vn 0.8286 -0.4423 -0.3432
vn 0.5773 0.5774 -0.5773
vn -0.5774 0.5774 -0.5774
vn -0.5773 0.5774 0.5773
vn -0.5801 -0.0983 -0.8086
vn 0.5594 -0.7811 -0.2775
vn -0.3900 -0.8342 -0.3899
vn 0.6953 -0.1821 -0.6953
vn 0.2775 -0.7811 0.5594
vn 0.5773 0.5774 0.5773
vn -0.7071 -0.0000 -0.7071
vn 0.7071 -0.0000 -0.7071
vn 0.7157 0.6984 0.0035
vn -0.8683 0.3417 -0.3596
vn 0.6848 0.7248 -0.0763
vn 0.1193 0.7217 0.6819
vn -0.4366 -0.7866 0.4366
vn 0.7071 -0.0000 0.7071
vn -0.7071 -0.0000 0.7071
vt 0.468750 0.425000
vt 0.468750 0.325000
vt 0.468750 0.375000
vt 0.093750 0.425000
vt 0.093750 0.325000
vt 0.093750 0.375000
s 1
usemtl colormap.001
f 19/1/1 20/1/2 42/1/3
f 44/1/4 19/1/1 42/1/3
s 0
f 11/1/5 47/1/5 39/1/5
s 1
f 12/1/6 47/1/4 11/1/7
f 31/1/8 47/1/4 12/1/6
f 14/1/9 15/1/1 12/1/6
f 34/1/10 31/1/8 36/1/11
f 31/1/8 34/1/10 29/1/12
f 26/2/13 33/2/14 30/2/15
f 35/2/16 32/2/17 33/2/14
f 13/2/18 10/2/19 16/2/20
f 16/2/20 10/2/19 35/2/16
f 32/2/17 10/2/19 48/2/21
f 48/2/21 10/2/19 40/2/22
f 48/2/21 40/2/22 45/2/23
f 37/2/14 45/2/23 40/2/22
f 37/2/14 41/2/22 17/2/24
f 41/2/22 8/2/13 43/2/21
f 43/2/21 6/2/25 2/2/17
f 4/2/26 2/2/17 6/2/25
f 1/1/27 44/1/4 2/2/17
f 43/2/21 2/2/17 44/1/4
f 24/2/28 41/2/22 23/1/29
f 39/1/29 40/2/22 11/1/7
f 37/2/14 38/1/10 8/2/13
f 36/1/11 15/1/1 35/2/16
f 16/2/20 35/2/16 15/1/1
f 25/1/30 34/1/10 26/2/13
f 33/2/14 26/2/13 34/1/10
f 27/1/31 28/2/32 29/1/12
f 28/2/32 27/1/31 26/2/13
f 25/1/30 26/2/13 27/1/31
f 24/2/28 23/1/29 22/2/33
f 21/1/34 22/2/33 23/1/29
f 22/2/33 21/1/34 18/2/35
f 20/1/2 18/2/35 21/1/34
f 5/1/36 6/2/25 7/1/37
f 72/2/38 63/1/39 71/2/40
f 72/2/38 70/2/41 63/1/39
f 68/2/42 71/2/40 62/1/43
f 70/2/41 69/2/44 61/1/45
f 59/1/46 61/1/45 69/2/44
f 57/1/47 59/1/46 66/2/48
f 60/1/49 58/1/50 67/2/51
f 57/1/47 66/2/48 58/1/50
f 65/2/52 58/1/50 66/2/48
f 60/1/49 59/1/46 58/1/50
f 57/1/47 58/1/50 59/1/46
f 56/1/3 55/3/53 51/1/4
f 56/1/3 54/1/10 55/3/53
f 53/3/54 55/3/53 54/1/10
f 52/1/11 51/1/4 50/3/55
f 75/1/56 80/2/57 79/2/58
f 80/2/57 75/1/56 73/1/59
f 73/1/59 78/2/60 80/2/57
f 88/1/29 81/1/37 86/1/61
f 83/1/1 86/1/61 81/1/37
f 81/1/37 88/1/29 82/2/62
f 87/2/63 82/2/62 88/1/29
f 81/1/37 82/2/62 83/1/1
f 39/4/29 38/4/10 40/5/22
f 37/5/14 40/5/22 38/4/10
f 36/4/11 35/5/16 34/4/10
f 33/5/14 34/4/10 35/5/16
f 21/1/34 23/1/29 20/1/2
f 42/1/3 20/1/2 23/1/29
f 1/1/27 3/1/64 44/1/4
f 5/1/36 44/1/4 3/1/64
f 7/1/37 44/1/4 5/1/36
f 38/1/10 44/1/4 7/1/37
f 38/1/10 19/1/1 44/1/4
s 0
f 46/1/5 19/1/5 38/1/5
s 1
f 39/1/29 46/1/1 38/1/10
f 47/1/4 46/1/1 39/1/29
f 15/1/1 36/1/11 12/1/6
f 36/1/11 31/1/8 12/1/6
f 25/1/30 29/1/12 34/1/10
f 27/1/31 29/1/12 25/1/30
f 28/2/32 26/2/13 30/2/15
f 30/2/15 33/2/14 32/2/17
f 35/2/16 10/2/19 32/2/17
f 9/2/28 40/2/22 10/2/19
f 24/2/28 22/2/33 41/2/22
f 18/2/35 41/2/22 22/2/33
f 17/2/24 41/2/22 18/2/35
s 0
f 45/2/5 37/2/5 17/2/5
s 1
f 8/2/13 41/2/22 37/2/14
f 8/2/13 6/2/25 43/2/21
f 48/2/21 47/1/4 32/2/17
f 31/1/8 32/2/17 47/1/4
f 46/1/1 45/2/23 19/1/1
f 17/2/24 19/1/1 45/2/23
f 42/1/3 23/1/29 41/2/22
f 9/2/28 11/1/7 40/2/22
f 7/1/37 8/2/13 38/1/10
f 32/2/17 31/1/8 30/2/15
f 29/1/12 30/2/15 31/1/8
f 30/2/15 29/1/12 28/2/32
f 20/1/2 19/1/1 18/2/35
f 17/2/24 18/2/35 19/1/1
f 16/2/20 15/1/1 13/2/18
f 14/1/9 13/2/18 15/1/1
f 14/1/9 12/1/6 13/2/18
f 10/2/19 13/2/18 12/1/6
f 12/1/6 11/1/7 10/2/19
f 9/2/28 10/2/19 11/1/7
f 8/2/13 7/1/37 6/2/25
f 6/2/25 5/1/36 4/2/26
f 3/1/64 4/2/26 5/1/36
f 4/2/26 3/1/64 2/2/17
f 1/1/27 2/2/17 3/1/64
f 64/1/65 71/2/40 63/1/39
f 61/1/45 63/1/39 70/2/41
f 64/1/65 62/1/43 71/2/40
f 62/1/43 60/1/49 68/2/42
f 69/2/44 66/2/48 59/1/46
f 67/2/51 68/2/42 60/1/49
f 65/2/52 67/2/51 58/1/50
f 64/1/65 63/1/39 62/1/43
f 63/1/39 61/1/45 62/1/43
f 61/1/45 51/1/4 62/1/43
f 51/1/4 52/1/11 62/1/43
f 51/1/4 61/1/45 56/1/3
f 62/1/43 52/1/11 60/1/49
f 56/1/3 61/1/45 54/1/10
f 54/1/10 60/1/49 52/1/11
f 61/1/45 59/1/46 54/1/10
f 54/1/10 59/1/46 60/1/49
f 49/3/27 51/1/4 55/3/53
f 52/1/11 50/3/55 54/1/10
f 53/3/54 54/1/10 50/3/55
f 49/3/27 50/3/55 51/1/4
f 75/1/56 74/1/66 73/1/59
f 74/1/66 75/1/56 76/1/67
f 77/2/68 74/1/66 76/1/67
f 75/1/56 77/2/68 76/1/67
f 74/1/66 77/2/68 78/2/60
f 77/2/68 75/1/56 79/2/58
f 78/2/60 73/1/59 74/1/66
f 86/1/61 85/2/69 88/1/29
f 87/2/63 88/1/29 85/2/69
f 86/1/61 83/1/1 85/2/69
f 84/2/70 85/2/69 83/1/1
f 84/2/70 83/1/1 82/2/62
f 46/4/1 47/4/4 45/5/23
f 48/5/21 45/5/23 47/4/4
f 43/5/21 44/4/4 41/5/22
f 42/4/3 41/5/22 44/4/4
f 49/6/27 55/6/53 50/6/55
f 53/6/54 50/6/55 55/6/53
